<svg xmlns="http://www.w3.org/2000/svg" xmlns:xlink="http://www.w3.org/1999/xlink" viewBox="0 0 161.026 200.018">
  <defs>
    <clipPath id="a" transform="translate(1 1.018)">
      <path d="M159.026,25.029c-13.281-1.141-20.152-5.279-29.078-10.656C118.776,7.644,106.115.018,79.539,0S40.291,7.591,29.111,14.3C20.177,19.668,13.3,23.8.017,24.92L0,50.822a39.861,39.861,0,0,0,8.222-.933l-.064,90.982c0,7.618.347,16.3,4.613,22.972,4.568,7.139,12.831,10.911,25.261,11.533C58.591,176.4,66.05,183.1,75.08,193.189l4.3,4.811.028-.031.028.031,4.3-4.8c9.045-10.081,16.511-16.763,37.073-17.763,12.431-.6,20.7-4.366,25.276-11.5,4.275-6.662,4.638-15.348,4.644-22.966l.062-90.983a39.906,39.906,0,0,0,8.221.945Z" fill="none" clip-rule="evenodd"/>
    </clipPath>
    <clipPath id="b" transform="translate(1 1.018)">
      <rect x="-90.481" y="-219" width="1440" height="1024" fill="none"/>
    </clipPath>
    <clipPath id="c" transform="translate(1 1.018)">
      <path d="M79.537,3.849c25.507.017,37.683,7.351,48.426,13.821,8.163,4.917,15.264,9.195,27.212,10.807l.034,18.285a63.143,63.143,0,0,1-9.24-1.859c-8.343-2.352-14.586-6.114-20.623-9.749-18-10.846-29.121-12.7-39.459-13.015l-.746-.021L84.4,22.1l-.742-.012q-.927-.012-1.852-.015l-1.11,0H79.58c-20.669-.014-31.366,4.652-41.046,10.215l-.682.4c-.113.065-.227.131-.34.2l-.678.4-.338.2-1.014.6q-.843.5-1.689,1.013c-6.065,3.643-12.339,7.41-20.74,9.749a63.087,63.087,0,0,1-9.147,1.82L3.871,28.372c11.946-1.6,19.051-5.863,27.221-10.769C41.843,11.148,54.028,3.831,79.537,3.849ZM59.314,28l2.709,11.922,7.411-.83.971,8.191c-9.022-1-16.355-3.541-21.868-7.595L46.261,38.01h0l-2.279,1.67c-.888.652-1.737,1.351-2.566,2.077l-2-4.229-.4-.841C45.1,33.074,51.067,29.943,59.314,28ZM99.9,27.948a85.176,85.176,0,0,1,20.379,8.861l-.481,1.012-1.926,4.054c-.849-.748-1.719-1.471-2.632-2.142l-2.276-1.675-2.278,1.671c-5.578,4.091-13.018,6.629-22.178,7.594l1.05-8.246,7.39.835Zm2.78,35.887a3.077,3.077,0,0,1,3.077,3.08,3.078,3.078,0,1,1-.005,6.156,3.078,3.078,0,0,1-6.156,0,3.079,3.079,0,1,1,0-6.157A3.076,3.076,0,0,1,102.68,63.835ZM46.622,60.8l7.053.005,13.6.009h.006l7.049.006L69.334,65.8l-1.113,1.111v.526l0,3.933c0,2.728-1.1,6.59-6.339,9.49l-1.42.786-1.418-.788c-5.233-2.908-6.328-6.77-6.326-9.5l0-3.934V66.9l-1.112-1.112ZM79.479,86.906a3.078,3.078,0,0,1,3.077,3.08,3.078,3.078,0,1,1,0,6.156,3.078,3.078,0,1,1-6.156,0,3.079,3.079,0,1,1,0-6.157A3.076,3.076,0,0,1,79.479,86.906ZM46.445,47.563a30.893,30.893,0,0,0-3.755,3.922l-.422.537-7.8,11.023c5.308,2.175,11.591,8.782,11.79,27.822a62.028,62.028,0,0,1-2.006,17.441l-.172.59,55.9-55.828a77.962,77.962,0,0,1-20.385,2.4C65.77,55.456,54.884,52.867,46.445,47.563Zm10.029,62.414a3.077,3.077,0,0,1,3.077,3.08,3.078,3.078,0,1,1-.005,6.156,3.078,3.078,0,1,1-6.156,0,3.079,3.079,0,0,1,0-6.158A3.077,3.077,0,0,1,56.474,109.977Zm63.3,8.779-.01,14.371.223-.4.229-.4.034-.057q.282-.477.587-.956c.051-.082.1-.162.157-.244q.258-.4.531-.8l.181-.263c.218-.311.442-.621.675-.93.022-.029.043-.06.066-.089.255-.337.522-.674.8-1.006.071-.086.144-.17.216-.255q.309-.368.634-.731c.1-.109.2-.217.3-.325q.317-.342.649-.68c.1-.1.194-.2.294-.3.321-.317.648-.633.991-.942-.265-.158-.533-.33-.8-.507l-.015-.01a22.578,22.578,0,0,1-4.959-4.482C120.285,119.434,120.031,119.1,119.777,118.756Zm-13.557-33.2L93.039,98.714l-.009,13.58-13.58-.009L66.269,125.448l-.009,13.594,26.751.018.019-26.751,23.191.016c-2.311-5.7-3.433-12.863-3.331-21.412.019-1.639.086-3.179.192-4.635l.057-.722Zm6.548-37.941a36.6,36.6,0,0,0-7.748,5.87l-.13.129L37.44,120.969l-.011-.01a22.2,22.2,0,0,1-4.654,3.733,36.232,36.232,0,0,1,9.031,13.6,26.485,26.485,0,0,0,1.824,3.616l.272.441,75.736-75.631A14.059,14.059,0,0,1,124.4,63.24l.314-.133-7.782-11.034A31.151,31.151,0,0,0,112.768,47.611ZM93.011,139.06,93,156.776a38.33,38.33,0,0,0,14.811-6.482,28.74,28.74,0,0,0,9.022-10.934l.129-.283Zm-40.346-.027-6.468,6.46a30.2,30.2,0,0,0,5.061,4.763,38.08,38.08,0,0,0,14.32,6.391l.67.151.012-17.756ZM46.257,42.785c7.179,5.279,17.666,8.822,33.348,8.833s26.171-3.516,33.356-8.786a34.659,34.659,0,0,1,6.687,6.461l.389.5,11.54,16.361-.032-.008a7.554,7.554,0,0,0-1.744-.185c-3.881,0-12.8,2.453-13.064,25-.252,21.283,7.28,28.586,12.824,31.3l.167.081h.09a21.976,21.976,0,0,0,4.459,1.5,31.2,31.2,0,0,0-8.5,7.146,36.409,36.409,0,0,0-4.944,8.825c-2.722,6.6-12.116,22.2-41.311,22.177s-38.567-15.627-41.28-22.234a31.007,31.007,0,0,0-4.924-8.823,31.027,31.027,0,0,0-8.494-7.166c3.905-.952,17.886-4.015,17.585-32.855-.237-22.543-9.15-25.01-13.031-25.013a7.578,7.578,0,0,0-1.743.182l-.032.009L39.169,49.74A34.682,34.682,0,0,1,46.257,42.785ZM71.578,165.426a78.674,78.674,0,0,0,15.746.024l-7.885,21.017ZM16.115,47.942,16.1,77.618l20.615.013h.141a48.109,48.109,0,0,1,1.713,13.316V91.1h-.141l-22.337-.015-.006,7.7,22.013.014h.14c-.623,6.126-2.069,10.424-3.842,13.465H34.25l-18.179-.012-.02,28.627c-.01,15.961,2.624,24.106,17.176,26.294l8.121-15.564a39.151,39.151,0,0,0,10.214,7.942l-18.315,7.625c1.636.246,3.414.419,5.365.517,22.237,1.111,31.362,8.427,40.827,18.784,9.48-10.344,18.614-17.647,40.853-18.728,1.95-.095,3.73-.267,5.366-.509l-18.305-7.65a39.147,39.147,0,0,0,10.224-7.929l8.1,15.575c14.554-2.168,17.2-10.309,17.211-26.27l.02-28.627-18.179-.012h-.141c-1.769-3.046-3.209-7.346-3.824-13.471h.14l22.013.016,0-7.7-22.338-.015h-.14c0-.052,0-.1,0-.153a48.152,48.152,0,0,1,1.732-13.314h.141l20.615.015.021-29.676c.046.014.095.027.141.042v-.014c.6.189,1.208.373,1.83.548.667.188,1.342.351,2.017.519l-.063,91.842c-.011,16.056-1.994,29.444-26.259,30.624-22,1.07-30.355,8.564-39.75,19.035l-1.434,1.6L78,190.623c-9.381-10.483-17.722-17.99-39.724-19.09-24.263-1.213-26.227-14.6-26.216-30.66l.062-91.842c.675-.165,1.351-.329,2.018-.516.623-.174,1.231-.357,1.831-.545v.013C16.02,47.968,16.069,47.956,16.115,47.942Z" fill="none" clip-rule="evenodd"/>
    </clipPath>
  </defs>
  <g>
    <g clip-path="url(#a)">
      <g clip-path="url(#b)">
        <rect width="161.026" height="200.018" fill="#ffa900"/>
      </g>
    </g>
    <g clip-path="url(#c)">
      <g clip-path="url(#b)">
        <rect x="3.871" y="3.85" width="153.337" height="190.393"/>
      </g>
    </g>
  </g>
</svg>
