<svg xmlns="http://www.w3.org/2000/svg" viewBox="0 0 72 72">
  <path d="M62.7,50.705c1.527,5.8-.29,7.909-2.113,7.965-2.866.089-5.2-7.068-5.993-9.968C49.073,28.4,63.968,6.737,69.283,0,46.764,5.791,34.176,30.517,34.066,30.73,34.3,18.941,37.9,6.593,39.858,2.894,14.057,15.772,12.677,45.243,11.89,55.153l-.655-.185a9.231,9.231,0,0,0-2.5-.332,10.257,10.257,0,0,0-5.757,1.728A6.748,6.748,0,0,0,0,62.1,9.455,9.455,0,0,0,2.883,69.1,11.4,11.4,0,0,0,10.815,72C24.34,72,23.494,53.44,25.563,44.425c1.1,8.362,4.109,17.058,8.833,23.126a81.114,81.114,0,0,1,6.093-22.713l.463,2.711c2.56,15,8.832,21.053,12.08,22.689A16.889,16.889,0,0,0,60.57,72a12.567,12.567,0,0,0,7.808-2.363,10.484,10.484,0,0,0,3.169-11.053C70.381,54.656,67.2,51.843,62.7,50.705Z"/>
</svg>
