<svg xmlns="http://www.w3.org/2000/svg" viewBox="0 0 432 91.509">
  <g>
    <g>
      <g>
        <path d="M120.369,72.708c2.488-.267,3.9-1.481,4.035-3.763l.806-21.107c.136-2.423.065-3.43-4.237-4.3V42.055h4.237c4.639,0,7.193-.2,7.193-.2l.2.2a37.451,37.451,0,0,0,1.476,4.5l6.12,15.933c.4,1.209.937,2.821,1.275,4.03l8.941-21.172c.4-1.008,1.209-3.3,1.209-3.3h1.95c4.236,0,6.05-.2,6.05-.2l.267.2s-1.748,2.02-1.612,6.12l.871,20.971a13.261,13.261,0,0,1-.2,3.093l5.042.333-.267,1.748-14.316.338v-1.95c2.483-.267,4.1-1.481,4.03-3.562L152.5,47.233,140.871,74.456l-1.884-.539L128.031,46.292c-.066.67-.131,1.41-.131,1.883l-.811,20.77a21.169,21.169,0,0,1-.4,3.294l5.244.333-.267,1.748-11.294.338Z"/>
        <path d="M169.012,72.708c2.554-.267,4.03-1.748,4.03-3.965V48.04c0-2.958,0-3.562-4.1-4.5V42.055h4.7a41.6,41.6,0,0,0,6.453-.267l.272.267s-1.617,2.287-1.617,7.461V68.743a19.268,19.268,0,0,1-.267,3.225l5.108.6-.267,1.683-14.317.4Z"/>
        <path d="M188.7,72.708c2.554-.267,4.034-1.748,4.034-3.965V48.04c0-2.958,0-3.562-4.1-4.5V42.055h4.705a41.663,41.663,0,0,0,6.453-.267l.267.267s-1.612,2.287-1.612,7.461V69.282a15.135,15.135,0,0,1-.267,2.756h7.39c4.171,0,5.178-1.818,7.733-6.79h2.151l-2.086,9.208h-16.13c-3.027,0-8.538.2-8.538.2Z"/>
        <path d="M228.516,74.255l-11.561-28.1a4.382,4.382,0,0,0-3.163-2.62V42.055h3.229c3.093,0,6.387-.2,6.387-.2l.2.2a6.6,6.6,0,0,0-.338,4.5l6.317,15.933,1.345,4.166,6.655-17.812-1.073-2.69a4.382,4.382,0,0,0-3.164-2.62V42.055h3.229c3.093,0,6.388-.2,6.388-.2l.2.2a7.046,7.046,0,0,0-.337,4.5l5.979,15.731c.408,1.21.877,2.892,1.214,4.232l6.655-17.676c1.007-2.892.2-4.438-2.489-5.244V42.055h8.871l.2.876s-2.081,1.144-3.965,6.453l-9.677,25.677-1.884-.806L239,52.477l-8.468,22.584Z"/>
        <path d="M261,72.708a4.047,4.047,0,0,0,3.7-2.755l11.561-27.7,2.69-.6L289.57,68.139c1.547,4.1,2.554,4.368,4.3,4.635l-.267,1.682h-2.624c-2.081,0-8.871.2-8.871.2V72.572c1.48,0,2.891-.534,2.216-2.352L281.908,64.1H270.614l-.871.605-2.957,7.329,4.77.736-.267,1.682H261Zm15.193-24-5.179,12.84H280.9l-3.36-8.74A39.624,39.624,0,0,1,276.2,48.71Z"/>
        <path d="M299.571,48.04c0-2.958,0-3.562-4.1-4.5V42.055h4.7a41.663,41.663,0,0,0,6.453-.267l.267.267s-1.612,2.287-1.612,7.461V62.694c0,6.991,4.841,9.948,9.612,9.948s9.611-3.228,9.611-9.611V48.241c0-2.62-.065-4.035-4.569-4.5V42.055h11.022l.272.806s-3.833,1.144-3.833,6.186V62.9c0,8.332-6.252,12.367-13.914,12.367-6.79,0-13.913-3.093-13.913-12.165Z"/>
        <path d="M336.32,72.708c2.554-.267,4.031-1.748,4.031-3.965V48.04c0-2.958,0-3.562-4.1-4.5V42.055h4.7a41.6,41.6,0,0,0,6.453-.267l.272.267s-1.617,2.287-1.617,7.461v6.79h1.144a14.007,14.007,0,0,0,1.883-1.546l7.93-7.8c1.213-1.139,1.279-2.957-1.612-3.29V42.055h11.359l.338.942s-3.159.675-8.066,5.511l-6.991,6.856v.811L363.81,69.887c2.217,2.418,2.554,2.352,4.5,2.554l-.2,2.015h-8.74l-.131-.2s-.4-1.547-3.5-5.109l-8.6-10.084h-1.078v9.681a19.268,19.268,0,0,1-.267,3.225l5.108.6-.267,1.683-14.317.4Z"/>
        <path d="M373.67,72.708c2.554-.267,4.03-1.748,4.03-3.965V47.163c0-2.216-.74-2.755-4.367-3.627V42.055h21.711a37.528,37.528,0,0,0,3.829-.2l-1.612,8.472H395.11c.2-5.042-1.411-5.848-5.446-5.848h-5.576l-.675.6v11.7h8.473l.4-2.76,2.352-.4v9.213H391.75V59.2h-7.662l-.675.67v9.414a15.135,15.135,0,0,1-.267,2.756h7.123c4.3,0,4.911-.741,7.465-5.783h2.151L398,74.456H382.2c-3.023,0-8.534.2-8.534.2Z"/>
        <path d="M405.78,72.708c2.559-.267,4.035-1.748,4.035-3.965V47.163c0-2.216-.74-2.755-4.367-3.627V42.055h21.711a37.528,37.528,0,0,0,3.829-.2l-1.612,8.472h-2.151c.2-5.042-1.411-5.848-5.446-5.848H416.2l-.675.6v11.7H424l.4-2.76,2.352-.4v9.213h-2.891V59.2H416.2l-.675.67v9.414a15.135,15.135,0,0,1-.267,2.756h7.123c4.3,0,4.906-.741,7.465-5.783H432l-1.884,8.2h-15.8c-3.023,0-8.539.2-8.539.2Z"/>
      </g>
      <g>
        <path d="M125.735,17.429c0-1.123,0-1.348-1.573-1.7v-.5h1.847a9.521,9.521,0,0,0,1.972-.1l.1.1a4.841,4.841,0,0,0-.6,2.746v4.894a3.511,3.511,0,0,0,3.67,3.795,3.584,3.584,0,0,0,3.745-3.7V17.48c0-.974-.025-1.5-1.722-1.673v-.574h3.994l.075.25a2.192,2.192,0,0,0-1.373,2.271v5.168c0,3.071-2.347,4.594-5.143,4.594-2.5,0-4.993-1.148-4.993-4.518Z"/>
        <path d="M141.836,26.592c.924-.075,1.5-.549,1.5-1.4V17.879c0-1.573-.349-1.972-1.723-2.147v-.5h.75c.948,0,2-.075,2-.075a3.542,3.542,0,0,0,.7.949l6.591,7.114c.3.35.7.849.974,1.25V17.58c0-1.049-.025-1.573-1.723-1.749v-.6h3.92l.1.25a2.418,2.418,0,0,0-1.423,2.4v9.438h-.575l-7.714-8.638a11.424,11.424,0,0,1-.974-1.2V25.2a7.607,7.607,0,0,1-.1,1.222l1.9.126-.1.624-4.095.125Z"/>
        <path d="M159.686,26.592a1.478,1.478,0,0,0,1.548-1.473v-7.69c0-1.123,0-1.348-1.548-1.7v-.5h1.822a9.521,9.521,0,0,0,1.972-.1l.1.1a4.841,4.841,0,0,0-.6,2.746v7.14a7.188,7.188,0,0,1-.1,1.2l1.947.225-.1.6-5.043.151Z"/>
        <path d="M169.521,16.7a1.617,1.617,0,0,0-1.248-.973v-.5h1.273c1.2,0,2.047-.075,2.047-.075l.075.075a2.429,2.429,0,0,0-.125,1.648l2.547,6.44c.174.475.375,1.1.524,1.574l3.071-7.166c.475-1.1.05-1.673-.924-1.972v-.524h3.2l.05.275a6.376,6.376,0,0,0-1.448,2.446l-4.094,9.487-.65-.3Z"/>
        <path d="M184.15,26.592a1.478,1.478,0,0,0,1.548-1.473V16.981c0-.749-.35-.925-1.648-1.249v-.5h7.839a13.067,13.067,0,0,0,1.4-.075l-.6,3.046h-.774c.075-1.873-.524-2.172-2.022-2.172H187.67l-.225.2v4.493h3.271l.15-1.023.848-.176v3.347h-1.048V21.549h-3l-.225.225v3.67a4.6,4.6,0,0,1-.1.948h2.8c1.6,0,1.822-.3,2.771-2.171h.749l-.7,3H187.1c-.974,0-2.946.076-2.946.076Z"/>
        <path d="M198.4,26.592a1.477,1.477,0,0,0,1.548-1.473V17.405c0-1.1.025-1.324-1.5-1.673v-.5H202.6c3.571,0,4.869,1.373,4.869,2.846,0,1.672-1.523,2.746-2.446,3.245v.3l2.771,3.819a1.962,1.962,0,0,0,1.822,1.048l-.1.724h-2.871l-.075-.075a8.563,8.563,0,0,0-1.123-1.972l-2.272-3.2H201.95l-.25.276v2.87a7.119,7.119,0,0,1-.1,1.2l1.922.225-.1.6-5.019.151Zm4.769-5.417a2.415,2.415,0,0,0,2.447-2.522c0-1.423-.849-2.621-3.121-2.621h-.575l-.224.224v4.919Z"/>
        <path d="M213.957,23.945h.749c0,2.222,1.323,2.747,2.646,2.747,1.149,0,2.272-.425,2.272-1.722,0-3.071-5.917-3.2-5.917-6.841,0-1.8,1.473-3.2,4.244-3.2a25.35,25.35,0,0,1,3.121.325l-.6,2.846h-.749c.2-2-1.073-2.372-2.072-2.372-1.224,0-2.2.574-2.2,1.748,0,3.095,5.892,3.02,5.892,6.84,0,2.123-1.947,3.2-4.145,3.2-1.672,0-3.695-.524-3.695-1.8A8.773,8.773,0,0,1,213.957,23.945Z"/>
        <path d="M226.214,26.592a1.477,1.477,0,0,0,1.548-1.473v-7.69c0-1.123,0-1.348-1.548-1.7v-.5h1.823a9.534,9.534,0,0,0,1.972-.1l.1.1a4.841,4.841,0,0,0-.6,2.746v7.14a7.119,7.119,0,0,1-.1,1.2l1.947.225-.1.6-5.043.151Z"/>
        <path d="M238.571,26.592a1.477,1.477,0,0,0,1.523-1.423V16.032h-1.648c-1.273,0-1.872.349-2.6,2.222H235.1l.574-3.121a7,7,0,0,0,1.248.1h8.838a8.306,8.306,0,0,0,1.348-.1l-.549,3.121h-.724c.075-1.873-.574-2.222-2.022-2.222h-1.673l-.224.249v8.888a5.339,5.339,0,0,1-.125,1.174l2.147.2-.075.624-5.293.125Z"/>
        <path d="M253.325,26.592a1.456,1.456,0,0,0,1.523-1.473V21.924L251.3,16.506a2.027,2.027,0,0,0-1-.8v-.474h1c1.248,0,1.972-.075,1.972-.075l.075.075a1.335,1.335,0,0,0,.024,1.323l1.973,3.021a14.842,14.842,0,0,1,.774,1.373l2.5-3.795c.374-.6.224-1.248-.774-1.423v-.5h3.445l.05.25a3.583,3.583,0,0,0-1.5,1.373L256.6,21.774v3.345a7.119,7.119,0,0,1-.1,1.2l1.948.225-.1.6-5.018.151Z"/>
        <path d="M303.2,27.141,298.908,16.7a1.616,1.616,0,0,0-1.248-.973v-.5h1.3c1.173,0,2-.075,2-.075l.074.075a2.425,2.425,0,0,0-.124,1.648l2.446,6.216a15.884,15.884,0,0,1,.5,1.548l2.621-7.14-.325-.8a1.616,1.616,0,0,0-1.248-.973v-.5h1.274c1.2,0,2.021-.075,2.021-.075l.076.075a2.8,2.8,0,0,0-.125,1.648l2.4,6.141a12.646,12.646,0,0,1,.474,1.548l2.521-6.841c.35-1.123.025-1.673-.948-1.972v-.524h3.2l.075.275s-.8.424-1.473,2.446l-3.445,9.487-.549-.3L306.947,18.7l-3.17,8.738Z"/>
        <path d="M320.1,26.592a1.477,1.477,0,0,0,1.548-1.473v-7.69c0-1.123,0-1.348-1.548-1.7v-.5h1.823a9.534,9.534,0,0,0,1.972-.1l.1.1a4.841,4.841,0,0,0-.6,2.746v7.14a7.119,7.119,0,0,1-.1,1.2l1.947.225-.1.6-5.043.151Z"/>
        <path d="M330.188,23.945h.749c0,2.222,1.323,2.747,2.646,2.747,1.149,0,2.272-.425,2.272-1.722,0-3.071-5.917-3.2-5.917-6.841,0-1.8,1.473-3.2,4.245-3.2a25.35,25.35,0,0,1,3.121.325l-.6,2.846h-.749c.2-2-1.073-2.372-2.072-2.372-1.223,0-2.2.574-2.2,1.748,0,3.095,5.892,3.02,5.892,6.84,0,2.123-1.947,3.2-4.144,3.2-1.673,0-3.7-.524-3.7-1.8A8.8,8.8,0,0,1,330.188,23.945Z"/>
        <path d="M349.161,14.933c1.6,0,3.221.45,4.195.5l-.6,2.772h-.749c0-1.9-1.4-2.472-3.02-2.472-3.1,0-4.719,2.172-4.719,4.919a5.113,5.113,0,0,0,5.268,5.417,6.076,6.076,0,0,0,3.82-1.3l.249.474a6.331,6.331,0,0,1-11.185-3.82A6.433,6.433,0,0,1,349.161,14.933Z"/>
        <path d="M365.138,14.933c3.97,0,6.392,2.621,6.392,5.867a6.727,6.727,0,0,1-6.841,6.716,6.062,6.062,0,0,1-6.342-6.142A6.43,6.43,0,0,1,365.138,14.933Zm-.075,11.709c2.871,0,4.519-2.8,4.519-5.393s-1.7-5.442-4.769-5.442c-2.846,0-4.493,2.471-4.493,5.093C360.32,23.746,362.042,26.642,365.063,26.642Z"/>
        <path d="M376.4,26.592c.924-.075,1.5-.549,1.5-1.4V17.879c0-1.573-.35-1.972-1.723-2.147v-.5h.749c.948,0,2-.075,2-.075a3.542,3.542,0,0,0,.7.949l6.591,7.114c.3.35.7.849.974,1.25V17.58c0-1.049-.025-1.573-1.723-1.749v-.6h3.92l.1.25a2.418,2.418,0,0,0-1.423,2.4v9.438h-.574l-7.715-8.638a11.553,11.553,0,0,1-.974-1.2V25.2a7.607,7.607,0,0,1-.1,1.222l1.9.126-.1.624-4.095.125Z"/>
        <path d="M394.719,23.945h.749c0,2.222,1.324,2.747,2.647,2.747,1.148,0,2.272-.425,2.272-1.722,0-3.071-5.917-3.2-5.917-6.841,0-1.8,1.473-3.2,4.244-3.2a25.35,25.35,0,0,1,3.121.325l-.6,2.846h-.749c.2-2-1.074-2.372-2.073-2.372-1.223,0-2.2.574-2.2,1.748,0,3.095,5.891,3.02,5.891,6.84,0,2.123-1.947,3.2-4.144,3.2-1.672,0-3.695-.524-3.695-1.8A8.8,8.8,0,0,1,394.719,23.945Z"/>
        <path d="M406.977,26.592a1.478,1.478,0,0,0,1.548-1.473v-7.69c0-1.123,0-1.348-1.548-1.7v-.5H408.8a9.541,9.541,0,0,0,1.973-.1l.1.1a4.835,4.835,0,0,0-.6,2.746v7.14a7.119,7.119,0,0,1-.1,1.2l1.948.225-.1.6-5.043.151Z"/>
        <path d="M416.687,26.592c.924-.075,1.5-.549,1.5-1.4V17.879c0-1.573-.349-1.972-1.722-2.147v-.5h.749c.948,0,2-.075,2-.075a3.542,3.542,0,0,0,.7.949l6.591,7.114c.3.35.7.849.974,1.25V17.58c0-1.049-.025-1.573-1.723-1.749v-.6h3.92l.1.25a2.418,2.418,0,0,0-1.423,2.4v9.438h-.575l-7.714-8.638a11.553,11.553,0,0,1-.974-1.2V25.2a7.681,7.681,0,0,1-.1,1.222l1.9.126-.1.624-4.095.125Z"/>
        <g>
          <path d="M276.4,19.145c2.044,0,2.6,1.292,2.212,2.952-.525,2.254-2.866,5.329-5.889,5.329-2.027,0-2.583-1.363-2.188-3.058C271.064,22.079,273.338,19.145,276.4,19.145Zm-3.473,7.7c1.922,0,3.716-2.9,4.209-5.014.273-1.171.16-2.114-.958-2.114-1.9,0-3.665,2.761-4.182,4.98C271.715,25.889,271.805,26.849,272.923,26.849Z"/>
          <path d="M282.361,19.721l1.243-.384c1.008-2.6,2.438-4.84,5.146-4.84.856,0,1.651.263,1.492.944a.934.934,0,0,1-.857.681c-.559,0-.7-.821-1.591-.821-1.45,0-2,1.852-2.814,4.053h2.236l-.422.839h-1.939l-.243.14c-1.591,4.28-3.419,10.623-7.286,11.024l-.025-.419c2.646-.856,4.6-6.9,5.965-10.675H282.2Z"/>
        </g>
      </g>
    </g>
    <path d="M79.69,64.444c1.941,7.375-.368,10.051-2.685,10.123-3.643.113-6.614-8.984-7.617-12.669C62.369,36.1,81.3,8.562,88.056,0,59.435,7.36,43.437,38.785,43.3,39.057c.3-14.984,4.872-30.678,7.362-35.378C17.865,20.046,16.112,57.5,15.112,70.1l-.833-.235a11.712,11.712,0,0,0-3.18-.422,13.037,13.037,0,0,0-7.318,2.2A8.575,8.575,0,0,0,0,78.929a12.011,12.011,0,0,0,3.665,8.888,14.488,14.488,0,0,0,10.08,3.692c17.19,0,16.115-23.589,18.744-35.047,1.4,10.628,5.223,21.681,11.227,29.392.992-11.391,5.981-25.419,7.744-28.867l.588,3.446C55.3,79.5,63.273,87.19,67.4,89.269a21.463,21.463,0,0,0,9.581,2.24c3.94,0,7.573-1.088,9.924-3a13.322,13.322,0,0,0,4.027-14.047C89.451,69.465,85.4,65.891,79.69,64.444Z" fill="#fcae02"/>
  </g>
</svg>
