<svg xmlns="http://www.w3.org/2000/svg" xmlns:xlink="http://www.w3.org/1999/xlink" viewBox="0 0 642.112 200.018">
  <defs>
    <clipPath id="a" transform="translate(1 1.018)">
      <path d="M159.026,25.029c-13.281-1.141-20.152-5.279-29.078-10.656C118.776,7.644,106.115.018,79.539,0S40.291,7.591,29.111,14.3C20.177,19.668,13.3,23.8.017,24.92L0,50.822a39.861,39.861,0,0,0,8.222-.933l-.064,90.982c0,7.618.347,16.3,4.613,22.972,4.568,7.139,12.831,10.911,25.261,11.533C58.591,176.4,66.05,183.1,75.08,193.189l4.3,4.811.028-.031.028.031,4.3-4.8c9.045-10.081,16.511-16.763,37.073-17.763,12.431-.6,20.7-4.366,25.276-11.5,4.275-6.662,4.638-15.348,4.644-22.966l.062-90.983a39.906,39.906,0,0,0,8.221.945Z" fill="none" clip-rule="evenodd"/>
    </clipPath>
    <clipPath id="b" transform="translate(1 1.018)">
      <rect x="-90.481" y="-219" width="1440" height="1024" fill="none"/>
    </clipPath>
    <clipPath id="c" transform="translate(1 1.018)">
      <path d="M79.537,3.849c25.507.017,37.683,7.351,48.426,13.821,8.163,4.917,15.264,9.195,27.212,10.807l.034,18.285a63.143,63.143,0,0,1-9.24-1.859c-8.343-2.352-14.586-6.114-20.623-9.749-18-10.846-29.121-12.7-39.459-13.015l-.746-.021L84.4,22.1l-.742-.012q-.927-.012-1.852-.015l-1.11,0H79.58c-20.669-.014-31.366,4.652-41.046,10.215l-.682.4c-.113.065-.227.131-.34.2l-.678.4-.338.2-1.014.6q-.843.5-1.689,1.013c-6.065,3.643-12.339,7.41-20.74,9.749a63.087,63.087,0,0,1-9.147,1.82L3.871,28.372c11.946-1.6,19.051-5.863,27.221-10.769C41.843,11.148,54.028,3.831,79.537,3.849ZM59.314,28l2.709,11.922,7.411-.83.971,8.191c-9.022-1-16.355-3.541-21.868-7.595L46.261,38.01h0l-2.279,1.67c-.888.652-1.737,1.351-2.566,2.077l-2-4.229-.4-.841C45.1,33.074,51.067,29.943,59.314,28ZM99.9,27.948a85.176,85.176,0,0,1,20.379,8.861l-.481,1.012-1.926,4.054c-.849-.748-1.719-1.471-2.632-2.142l-2.276-1.675-2.278,1.671c-5.578,4.091-13.018,6.629-22.178,7.594l1.05-8.246,7.39.835Zm2.78,35.887a3.077,3.077,0,0,1,3.077,3.08,3.078,3.078,0,1,1-.005,6.156,3.078,3.078,0,0,1-6.156,0,3.079,3.079,0,1,1,0-6.157A3.076,3.076,0,0,1,102.68,63.835ZM46.622,60.8l7.053.005,13.6.009h.006l7.049.006L69.334,65.8l-1.113,1.111v.526l0,3.933c0,2.728-1.1,6.59-6.339,9.49l-1.42.786-1.418-.788c-5.233-2.908-6.328-6.77-6.326-9.5l0-3.934V66.9l-1.112-1.112ZM79.479,86.906a3.078,3.078,0,0,1,3.077,3.08,3.078,3.078,0,1,1,0,6.156,3.078,3.078,0,1,1-6.156,0,3.079,3.079,0,1,1,0-6.157A3.076,3.076,0,0,1,79.479,86.906ZM46.445,47.563a30.893,30.893,0,0,0-3.755,3.922l-.422.537-7.8,11.023c5.308,2.175,11.591,8.782,11.79,27.822a62.028,62.028,0,0,1-2.006,17.441l-.172.59,55.9-55.828a77.962,77.962,0,0,1-20.385,2.4C65.77,55.456,54.884,52.867,46.445,47.563Zm10.029,62.414a3.077,3.077,0,0,1,3.077,3.08,3.078,3.078,0,1,1-.005,6.156,3.078,3.078,0,1,1-6.156,0,3.079,3.079,0,0,1,0-6.158A3.077,3.077,0,0,1,56.474,109.977Zm63.3,8.779-.01,14.371.223-.4.229-.4.034-.057q.282-.477.587-.956c.051-.082.1-.162.157-.244q.258-.4.531-.8l.181-.263c.218-.311.442-.621.675-.93.022-.029.043-.06.066-.089.255-.337.522-.674.8-1.006.071-.086.144-.17.216-.255q.309-.368.634-.731c.1-.109.2-.217.3-.325q.317-.342.649-.68c.1-.1.194-.2.294-.3.321-.317.648-.633.991-.942-.265-.158-.533-.33-.8-.507l-.015-.01a22.578,22.578,0,0,1-4.959-4.482C120.285,119.434,120.031,119.1,119.777,118.756Zm-13.557-33.2L93.039,98.714l-.009,13.58-13.58-.009L66.269,125.448l-.009,13.594,26.751.018.019-26.751,23.191.016c-2.311-5.7-3.433-12.863-3.331-21.412.019-1.639.086-3.179.192-4.635l.057-.722Zm6.548-37.941a36.6,36.6,0,0,0-7.748,5.87l-.13.129L37.44,120.969l-.011-.01a22.2,22.2,0,0,1-4.654,3.733,36.232,36.232,0,0,1,9.031,13.6,26.485,26.485,0,0,0,1.824,3.616l.272.441,75.736-75.631A14.059,14.059,0,0,1,124.4,63.24l.314-.133-7.782-11.034A31.151,31.151,0,0,0,112.768,47.611ZM93.011,139.06,93,156.776a38.33,38.33,0,0,0,14.811-6.482,28.74,28.74,0,0,0,9.022-10.934l.129-.283Zm-40.346-.027-6.468,6.46a30.2,30.2,0,0,0,5.061,4.763,38.08,38.08,0,0,0,14.32,6.391l.67.151.012-17.756ZM46.257,42.785c7.179,5.279,17.666,8.822,33.348,8.833s26.171-3.516,33.356-8.786a34.659,34.659,0,0,1,6.687,6.461l.389.5,11.54,16.361-.032-.008a7.554,7.554,0,0,0-1.744-.185c-3.881,0-12.8,2.453-13.064,25-.252,21.283,7.28,28.586,12.824,31.3l.167.081h.09a21.976,21.976,0,0,0,4.459,1.5,31.2,31.2,0,0,0-8.5,7.146,36.409,36.409,0,0,0-4.944,8.825c-2.722,6.6-12.116,22.2-41.311,22.177s-38.567-15.627-41.28-22.234a31.007,31.007,0,0,0-4.924-8.823,31.027,31.027,0,0,0-8.494-7.166c3.905-.952,17.886-4.015,17.585-32.855-.237-22.543-9.15-25.01-13.031-25.013a7.578,7.578,0,0,0-1.743.182l-.032.009L39.169,49.74A34.682,34.682,0,0,1,46.257,42.785ZM71.578,165.426a78.674,78.674,0,0,0,15.746.024l-7.885,21.017ZM16.115,47.942,16.1,77.618l20.615.013h.141a48.109,48.109,0,0,1,1.713,13.316V91.1h-.141l-22.337-.015-.006,7.7,22.013.014h.14c-.623,6.126-2.069,10.424-3.842,13.465H34.25l-18.179-.012-.02,28.627c-.01,15.961,2.624,24.106,17.176,26.294l8.121-15.564a39.151,39.151,0,0,0,10.214,7.942l-18.315,7.625c1.636.246,3.414.419,5.365.517,22.237,1.111,31.362,8.427,40.827,18.784,9.48-10.344,18.614-17.647,40.853-18.728,1.95-.095,3.73-.267,5.366-.509l-18.305-7.65a39.147,39.147,0,0,0,10.224-7.929l8.1,15.575c14.554-2.168,17.2-10.309,17.211-26.27l.02-28.627-18.179-.012h-.141c-1.769-3.046-3.209-7.346-3.824-13.471h.14l22.013.016,0-7.7-22.338-.015h-.14c0-.052,0-.1,0-.153a48.152,48.152,0,0,1,1.732-13.314h.141l20.615.015.021-29.676c.046.014.095.027.141.042v-.014c.6.189,1.208.373,1.83.548.667.188,1.342.351,2.017.519l-.063,91.842c-.011,16.056-1.994,29.444-26.259,30.624-22,1.07-30.355,8.564-39.75,19.035l-1.434,1.6L78,190.623c-9.381-10.483-17.722-17.99-39.724-19.09-24.263-1.213-26.227-14.6-26.216-30.66l.062-91.842c.675-.165,1.351-.329,2.018-.516.623-.174,1.231-.357,1.831-.545v.013C16.02,47.968,16.069,47.956,16.115,47.942Z" fill="none" clip-rule="evenodd"/>
    </clipPath>
  </defs>
  <g>
    <g clip-path="url(#a)">
      <g clip-path="url(#b)">
        <rect width="161.026" height="200.018" fill="#ffa900"/>
      </g>
    </g>
    <g clip-path="url(#c)">
      <g clip-path="url(#b)">
        <rect x="3.871" y="3.85" width="153.337" height="190.393"/>
      </g>
    </g>
    <g>
      <g>
        <path d="M304.988,58.543a6.641,6.641,0,1,0,0-13.28,6.569,6.569,0,0,0-6.916,6.64C298.072,55.777,300.93,58.543,304.988,58.543Z" transform="translate(1 1.018)"/>
        <path d="M332.656,103.918V47.2h-2.214l-14.2,3.781v2.675l1.106.186c3.966.553,5.072,2.4,5.072,5.625v44.452c0,2.489-.915,3.76-2.621,4.57a8.454,8.454,0,0,1-7.1.02c-1.76-.81-2.729-2.08-2.729-4.59v-39.2h-2.213l-14.2,3.781v2.675l1.106.275c3.966.461,5.072,2.305,5.072,5.627v26.837c0,2.766-1.129,4.027-3.219,4.824a9.925,9.925,0,0,1-6.024.272c-3.837-1-5.237-3.039-5.237-6.11V60.941c0-4.611,2.122-6.547,8.3-6.917V50.98H275.568l-22.687,48.7-21.765-48.7H212.394v3.044c6.086.37,8.3,2.306,8.3,6.917V102.9c0,3.781-2.214,5.9-8.3,6.639v3.044H232.96v-3.044c-6.178-.645-8.3-2.858-8.3-6.639V63.062L246.8,112.587h4.519l23.148-49.525V102.9c0,3.689-2.122,5.9-8.3,6.639v3.044h72.766v-3.044C334.961,108.713,332.656,107.791,332.656,103.918Z" transform="translate(1 1.018)"/>
      </g>
      <path d="M409.054,73.484,392.73,113.878H389.5L375.945,81.414l-13.188,32.464h-3.044L342.745,73.484c-1.108-2.583-2.491-3.689-5.719-4.427V66.013h22.5v3.135c-5.258.831-6.272,2.03-4.889,5.627l9.961,25.638,9.222-24.071-1.2-2.858c-.922-2.214-2.212-3.6-5.625-4.427V66.013h22.5v3.135c-5.258.923-6.364,2.03-4.981,5.627l10.053,25.638,9.774-25.638c1.477-3.782.092-4.888-5.347-5.627V66.013h15.677v1.166A13.23,13.23,0,0,0,409.054,73.484Z" transform="translate(1 1.018)"/>
      <path d="M451.871,83.068v18.569c0,2.6,2.708,7.183,4.754,8.1v1l-12.778,3.594h-2.214V104.65c-3.044,6.731-8.208,9.683-14.663,9.683-7.747,0-12.913-5.35-12.913-12.452,0-9.5,8.947-13.094,21.857-16.046l5.719-1.2v-2.12c0-8.3-3.781-13.373-9.96-13.373-4.98,0-7.839,3.321-7.839,7.655a11.075,11.075,0,0,0,1.383,5.072l-9.13,3.136a10.984,10.984,0,0,1-1.66-5.625c0-7.747,8.577-14.2,19.551-14.2C445.507,65.177,451.871,72.186,451.871,83.068Zm-20.2,25.085c4.15,0,7.747-2.4,9.96-6.825v-13l-4.7,1.106c-8.946,2.3-12.174,5.441-12.174,11.16C424.756,104.925,427.431,108.153,431.673,108.153Z" transform="translate(1 1.018)"/>
      <path d="M549.873,105.024l-15.4-22.779,9.222-7.747c4.611-4.058,6.641-5.164,10.7-5.349V66.012H535.669v3.137c5.441,0,6.364,2.03,2.122,5.441L522.3,87.41V47.2h-2.213L505.79,50.98v2.675l1.106.186c4.611.461,5.163,2.95,5.163,5.625v44.452c0,3.661-2,5.606-6.182,5.606-5.6,0-6.631-4.684-6.631-8.558V64.723h-2.214l-14.2,3.781v2.675l1.107.275c4.058.461,5.164,2.305,5.164,5.627v23.24c-3.964,4.889-7.561,6.641-11.066,6.641-5.072,0-8.024-3.136-8.024-9.407V64.723H467.7L455.02,68.1v1c2.2.97,4.754,5.76,4.754,8.414v20.87c0,10.052,5.717,15.493,14.018,15.493,5.625,0,10.513-2.858,15.308-10.145v10.6h2.214l6.13-1.746h31.217v-3.044c-4.427-.922-6.364-2.028-6.364-5.625V92.391l4.336-3.6,15.493,23.793H557.62v-1.306A18.043,18.043,0,0,1,549.873,105.024Z" transform="translate(1 1.018)"/>
      <path d="M595.461,87.41H564.105c.553,11.528,6.455,18.63,15.218,18.63a16.021,16.021,0,0,0,13.557-7.747l2.4,1.014a20.3,20.3,0,0,1-19.737,14.571c-13.649,0-21.3-11.068-21.3-23.334,0-16.046,9.316-25.821,22.688-25.821C589.559,64.723,595.461,74.775,595.461,87.41Zm-10.513-4.058c-.461-8.577-3.136-14.479-9.591-14.479-6.733,0-10.33,5.625-11.16,14.479Z" transform="translate(1 1.018)"/>
      <path d="M641.112,87.41H609.756c.553,11.528,6.455,18.63,15.218,18.63a16.021,16.021,0,0,0,13.557-7.747l2.4,1.014a20.3,20.3,0,0,1-19.737,14.571c-13.649,0-21.3-11.068-21.3-23.334,0-16.046,9.316-25.821,22.688-25.821C635.21,64.723,641.112,74.775,641.112,87.41ZM630.6,83.352c-.461-8.577-3.136-14.479-9.591-14.479-6.733,0-10.33,5.625-11.16,14.479Z" transform="translate(1 1.018)"/>
      <g>
        <path d="M212.394,133.643v-8.818h2.382v8.818a3.18,3.18,0,1,0,6.353,0v-8.818h2.383v8.818a5.559,5.559,0,1,1-11.118,0Z" transform="translate(1 1.018)"/>
        <path d="M229.888,124.825l6.74,9.651v-9.651h2.4v14.254h-2.057l-6.78-9.653v9.653h-2.383V124.825Z" transform="translate(1 1.018)"/>
        <path d="M245.712,124.825v14.254H243.33V124.825Z" transform="translate(1 1.018)"/>
        <path d="M251.5,124.825l3.828,10.447,3.828-10.447h2.525L256.3,139.079h-1.976l-5.375-14.254Z" transform="translate(1 1.018)"/>
        <path d="M273.327,124.825v2.281H267.3v3.36h5.375v2.281H267.3V136.8h6.027v2.281h-8.409V124.825Z" transform="translate(1 1.018)"/>
        <path d="M285.261,139.079l-3.543-5.722h-2.1v5.722h-2.383V124.825h5.356a4.3,4.3,0,0,1,4.377,4.236,4.027,4.027,0,0,1-2.707,4.031l3.888,5.987Zm-5.64-8h2.892a1.979,1.979,0,0,0,2.056-2.015,1.938,1.938,0,0,0-2.056-1.934h-2.892Z" transform="translate(1 1.018)"/>
        <path d="M300.718,126.657l-1.384,1.854a5.328,5.328,0,0,0-3.645-1.589c-1.3,0-2.22.652-2.22,1.608,0,3.035,7.6,1.285,7.6,6.435,0,2.28-1.914,4.317-5.091,4.317a7.962,7.962,0,0,1-5.64-2.444l1.527-1.75a5.766,5.766,0,0,0,4.113,1.894c1.568,0,2.647-.795,2.647-2,0-2.953-7.554-1.08-7.554-6.272,0-2.32,2-4.093,4.805-4.093A6.826,6.826,0,0,1,300.718,126.657Z" transform="translate(1 1.018)"/>
        <path d="M307.156,124.825v14.254h-2.383V124.825Z" transform="translate(1 1.018)"/>
        <path d="M321.8,127.106h-4.378v11.973h-2.383V127.106h-4.377v-2.281H321.8Z" transform="translate(1 1.018)"/>
        <path d="M326.828,124.825l3.605,5.66,3.543-5.66h2.789l-5.172,8.064v6.19h-2.382v-6.19l-5.274-8.064Z" transform="translate(1 1.018)"/>
        <path d="M360.186,131.932a7.239,7.239,0,1,1-7.229-7.311A7.145,7.145,0,0,1,360.186,131.932Zm-12.014,0a4.789,4.789,0,1,0,4.785-4.989A4.813,4.813,0,0,0,348.172,131.932Z" transform="translate(1 1.018)"/>
        <path d="M372.406,124.825v2.281h-6.027v3.686h5.375v2.281h-5.375v6.006H364V124.825Z" transform="translate(1 1.018)"/>
        <path d="M401.344,124.805,396.6,139.079h-1.955l-3.36-10.323-3.36,10.323H385.95l-4.786-14.274h2.546l3.258,10.344,3.36-10.344H392.3l3.3,10.344,3.258-10.344Z" transform="translate(1 1.018)"/>
        <path d="M406.988,124.825v14.254h-2.382V124.825Z" transform="translate(1 1.018)"/>
        <path d="M420.774,126.657l-1.384,1.854a5.331,5.331,0,0,0-3.646-1.589c-1.3,0-2.219.652-2.219,1.608,0,3.035,7.6,1.285,7.6,6.435,0,2.28-1.913,4.317-5.09,4.317a7.966,7.966,0,0,1-5.641-2.444l1.527-1.75a5.768,5.768,0,0,0,4.114,1.894c1.568,0,2.646-.795,2.646-2,0-2.953-7.553-1.08-7.553-6.272,0-2.32,2-4.093,4.805-4.093A6.826,6.826,0,0,1,420.774,126.657Z" transform="translate(1 1.018)"/>
        <path d="M431.508,139.282a7.332,7.332,0,0,1,0-14.661c2.81,0,5.253,1.447,6.027,3.544L435.4,129.2a4.125,4.125,0,0,0-3.888-2.26,5.019,5.019,0,0,0,0,10.018,4.063,4.063,0,0,0,4.011-2.5l2.158.978C436.944,137.715,434.419,139.282,431.508,139.282Z" transform="translate(1 1.018)"/>
        <path d="M455.232,131.932A7.239,7.239,0,1,1,448,124.621,7.145,7.145,0,0,1,455.232,131.932Zm-12.013,0A4.789,4.789,0,1,0,448,126.943,4.812,4.812,0,0,0,443.219,131.932Z" transform="translate(1 1.018)"/>
        <path d="M461.12,124.825l6.74,9.651v-9.651h2.4v14.254h-2.056l-6.78-9.653v9.653h-2.383V124.825Z" transform="translate(1 1.018)"/>
        <path d="M484.051,126.657l-1.385,1.854a5.328,5.328,0,0,0-3.645-1.589c-1.3,0-2.219.652-2.219,1.608,0,3.035,7.594,1.285,7.594,6.435,0,2.28-1.913,4.317-5.089,4.317a7.966,7.966,0,0,1-5.641-2.444l1.527-1.75a5.766,5.766,0,0,0,4.114,1.894c1.567,0,2.646-.795,2.646-2,0-2.953-7.554-1.08-7.554-6.272,0-2.32,2-4.093,4.805-4.093A6.83,6.83,0,0,1,484.051,126.657Z" transform="translate(1 1.018)"/>
        <path d="M490.488,124.825v14.254h-2.383V124.825Z" transform="translate(1 1.018)"/>
        <path d="M496.862,124.825l6.739,9.651v-9.651h2.4v14.254h-2.057l-6.781-9.653v9.653h-2.382V124.825Z" transform="translate(1 1.018)"/>
        <path d="M509.509,132.747h6.069v2.117h-6.069Z" transform="translate(1 1.018)"/>
        <path d="M519.081,124.825h2.871l4.745,10.752,4.887-10.752h2.443v14.254h-2.383v-9.571l-4.255,9.571h-1.751l-4.175-9.571v9.571h-2.382Z" transform="translate(1 1.018)"/>
        <path d="M540.71,124.825v14.254h-2.383V124.825Z" transform="translate(1 1.018)"/>
        <path d="M547.391,124.825V136.8h6.821v2.281h-9.2V124.825Z" transform="translate(1 1.018)"/>
        <path d="M574.82,124.805l-4.745,14.274H568.12l-3.36-10.323L561.4,139.079h-1.975l-4.785-14.274h2.544l3.258,10.344,3.361-10.344h1.975l3.3,10.344,3.258-10.344Z" transform="translate(1 1.018)"/>
        <path d="M584.7,136.228h-6.027l-1.121,2.851h-2.524l5.681-14.254h2l5.68,14.254H585.8Zm-.9-2.28-2.118-5.457-2.137,5.457Z" transform="translate(1 1.018)"/>
        <path d="M590.729,133.643v-8.818h2.383v8.818a3.18,3.18,0,1,0,6.353,0v-8.818h2.382v8.818a5.559,5.559,0,1,1-11.118,0Z" transform="translate(1 1.018)"/>
        <path d="M614.576,139.079l-6.047-6.965v6.965h-2.383V124.825h2.383v6.211l5.6-6.211h3.034l-6.15,6.74,6.7,7.514Z" transform="translate(1 1.018)"/>
        <path d="M628.79,124.825v2.281h-6.027v3.36h5.376v2.281h-5.376V136.8h6.027v2.281h-8.409V124.825Z" transform="translate(1 1.018)"/>
        <path d="M641.112,124.825v2.281h-6.027v3.36h5.375v2.281h-5.375V136.8h6.027v2.281H632.7V124.825Z" transform="translate(1 1.018)"/>
      </g>
    </g>
  </g>
</svg>
