<svg id="Layer_1" data-name="Layer 1" xmlns="http://www.w3.org/2000/svg" viewBox="0 0 85 85.87"><defs><style>.cls-1{fill:#122248;stroke:#0a1223;stroke-miterlimit:10;stroke-width:4px;}.cls-2{fill:#f06022;}.cls-3{fill:#fff;}</style></defs><title>nc-logo</title><path class="cls-1" d="M81.79,38.89,75,20.22a11.87,11.87,0,0,0-5.2-6.2L52.59,4.09A11.86,11.86,0,0,0,46.67,2.5h0a11.86,11.86,0,0,0-2.06.18L25.05,6.13a11.8,11.8,0,0,0-7,4.05L5.27,25.4A11.79,11.79,0,0,0,2.5,33V52.87a11.84,11.84,0,0,0,2.77,7.61L18,75.69a11.8,11.8,0,0,0,7,4l19.56,3.45a11.83,11.83,0,0,0,8-1.41l17.2-9.93a11.87,11.87,0,0,0,5.2-6.2L81.79,47A11.84,11.84,0,0,0,81.79,38.89Z"/><path class="cls-2" d="M67.33,24.23A2.65,2.65,0,0,1,66,23.87L49.67,14.45a8.07,8.07,0,0,0-5.44-1L32.55,15.55a2.69,2.69,0,0,1-.93-5.3L43.3,8.19a13.46,13.46,0,0,1,9.06,1.6l16.32,9.42a2.69,2.69,0,0,1-1.35,5Z"/><path class="cls-2" d="M45.63,77.88a14,14,0,0,1-2.33-.2L28.59,75.09a13.53,13.53,0,0,1-8-4.6L11,59.05A13.48,13.48,0,0,1,7.88,50.4V31.55a2.69,2.69,0,1,1,5.38,0V50.4a8.06,8.06,0,0,0,1.89,5.19L24.75,67a8.06,8.06,0,0,0,4.78,2.76l14.7,2.59a8.07,8.07,0,0,0,5.44-1L66,62a2.69,2.69,0,1,1,2.69,4.66L52.36,76.08A13.44,13.44,0,0,1,45.63,77.88Z"/><path class="cls-3" d="M65.55,38.34,63,31.43a13.46,13.46,0,0,0-5.91-7l-6.36-3.68a13.52,13.52,0,0,0-9.06-1.59l-7.24,1.27a13.42,13.42,0,0,0-8,4.6L24,28V18.73a2.69,2.69,0,1,0-5.38,0V46.61a13.52,13.52,0,0,0,3.14,8.64l4.73,5.63a13.42,13.42,0,0,0,8,4.6l7.24,1.27A13,13,0,0,0,44,67a13.57,13.57,0,0,0,6.73-1.8l6.36-3.68a13.46,13.46,0,0,0,5.91-7l2.51-6.91A13.44,13.44,0,0,0,65.55,38.34Zm-5,7.35L58,52.6a8,8,0,0,1-3.54,4.23L48.08,60.5a8.12,8.12,0,0,1-5.44,1l-7.23-1.28a8.06,8.06,0,0,1-4.78-2.76l-4.72-5.63A8.06,8.06,0,0,1,24,46.61V39.26a8.06,8.06,0,0,1,1.89-5.18l4.72-5.63a8.06,8.06,0,0,1,4.78-2.76l7.23-1.28a8.13,8.13,0,0,1,5.44,1l6.36,3.68A8,8,0,0,1,58,33.27l2.52,6.91A8.15,8.15,0,0,1,60.5,45.69Z"/></svg>