<?xml version="1.0" encoding="UTF-8"?>
<svg width="3000px" height="3000px" viewBox="0 0 3000 3000" version="1.1" xmlns="http://www.w3.org/2000/svg" xmlns:xlink="http://www.w3.org/1999/xlink">
    <!-- Generator: Sketch 52 (66869) - http://www.bohemiancoding.com/sketch -->
    <title>Artboard</title>
    <desc>Created with Sketch.</desc>
    <g id="Artboard" stroke="none" stroke-width="1" fill="none" fill-rule="evenodd">
        <circle id="Oval" fill="#000000" cx="1500" cy="1500" r="1500"></circle>
        <g id="Group" transform="translate(2412.000000, 2177.000000)" fill="#FFFFFF" fill-rule="nonzero">
            <path d="M62.9734794,122.635228 C29.239121,122.635228 0.809396335,95.9823611 0.809396335,60.4452053 C0.809396335,24.9339891 29.2261512,0.0579800369 62.9734794,0.0579800369 C96.7208077,0.0579800369 125.137563,24.9339891 125.137563,60.4452053 C125.137563,95.9823611 96.7208077,122.635228 62.9734794,122.635228 Z M13.2474009,60.4452053 C13.2474009,90.6647575 34.5567246,111.961111 62.9734794,111.974081 C89.6263463,111.974081 112.699558,90.6647575 112.699558,60.4452053 C112.699558,32.05439 89.6263463,10.7191268 62.9734794,10.7191268 C34.5567246,10.7191268 13.2474009,32.05439 13.2474009,60.4452053 Z" id="Combined-Shape"></path>
            <path d="M48.7586171,65.7887485 L48.7586171,95.9823611 L38.0974704,95.9823611 L38.0974704,24.9210193 L66.5142252,24.9210193 C82.4929756,24.9210193 91.3902343,32.0414202 91.3902343,46.230343 C91.3902343,58.6683475 82.4929756,64.0118907 71.8577684,65.7887485 L93.1670921,95.9823611 L80.7290876,95.9823611 L61.1966216,65.7887485 L48.7586171,65.7887485 Z M48.7586171,56.8914898 L62.9734794,56.8914898 C71.8577684,56.8914898 78.9522298,56.8914898 78.9522298,44.4534852 C78.9522298,35.5821661 71.8577684,35.5821661 64.7373674,35.5821661 L48.7586171,35.5821661 L48.7586171,56.8914898 Z" id="Combined-Shape"></path>
        </g>
        <path d="M1657.87829,1503.83639 L1878.13084,1503.83639 L1904.78371,1194.75393 C1906.56056,1166.33717 1908.32445,1136.13059 1910.10131,1107.71384 L1917.19577,1107.71384 C1918.99857,1137.92042 1926.09303,1168.10106 1931.41063,1198.30764 L2013.13312,1503.83639 L2146.34558,1503.83639 L2236.92641,1180.53906 C2244.04682,1157.45288 2247.58756,1132.57687 2252.9311,1107.71384 L2256.47185,1107.71384 L2286.66546,1503.83639 L2508.69487,1503.83639 L2403.89917,780.86279 L2172.9725,780.86279 L2101.91116,1065.08222 C2094.8167,1095.2888 2089.47316,1129.03613 2085.93241,1161.0066 L2080.61481,1161.0066 L1993.57472,780.86279 L1759.10731,780.86279 L1657.87829,1503.83639 Z" id="Path" fill="#FFFFFF" fill-rule="nonzero"></path>
        <path d="M2508.72081,1802.24474 C2455.45398,1784.48914 2393.26396,1773.82799 2325.78227,1773.82799 C2080.65372,1773.82799 1936.76715,1935.49611 1638.33286,1914.16085 C1620.57725,1914.16085 1604.58553,1898.1821 1604.58553,1878.64963 L1604.58553,1869.75237 L1593.92438,1947.92114 C1593.92438,1951.46189 1592.14752,1955.01561 1592.14752,1956.79246 C1592.19742,1976.39839 1608.07876,1992.27972 1627.68468,1992.32962 C1926.09303,2013.63894 2080.64075,1851.99676 2325.7693,1851.99676 C2393.25099,1851.99676 2455.44101,1862.65791 2508.70784,1880.41352 L2508.70784,2098.90218 C2455.44101,2081.14657 2393.25099,2070.48542 2325.7693,2070.48542 C2080.64075,2070.48542 1915.41891,2228.57389 1617.02353,2207.25159 C1590.37067,2207.25159 1567.27151,2185.94227 1567.27151,2157.52551 L1567.27151,2148.62826 L1588.60678,2011.86208 L499.717197,2134.41339 L499.717197,1914.16085 L1613.48279,1832.43836 L1622.35411,1773.81502 L499.730167,1818.24943 L499.730167,1596.19409 L1586.84289,1596.19409 C1615.25964,1596.19409 1636.56897,1619.29324 1636.56897,1645.94611 L1636.56897,1654.81743 C1634.79211,1658.38411 1634.79211,1660.16097 1634.79211,1663.71469 C1634.84916,1683.31343 1650.73049,1699.18316 1670.32927,1699.2259 C1966.96076,1720.56117 2080.65372,1562.45973 2325.78227,1562.45973 C2393.26396,1562.45973 2455.45398,1571.33105 2508.72081,1590.87649 L2508.72081,1802.24474 Z" id="Path" fill="#FFBD00"></path>
        <path d="M1265.30945,780.86279 C1272.41688,780.86279 1272.41688,784.416506 1272.41688,789.747079 L1272.41688,832.365727 C1270.64002,832.365727 1247.55384,834.155554 1247.55384,834.155554 C1226.23155,834.155554 1204.92222,841.262985 1204.92222,873.233456 C1204.92222,889.225176 1208.47594,901.650211 1220.90097,956.719832 L1307.94107,1320.87192 C1359.45697,1121.9287 1421.63402,860.808421 1442.94335,784.429476 C1446.49706,780.87576 1448.27392,780.87576 1451.82764,780.87576 C1471.37307,780.87576 1480.24439,779.098902 1482.03422,784.429476 L1638.34583,1358.17296 C1638.34583,1358.17296 1624.13096,1459.42792 1618.81336,1496.71599 C1617.0365,1503.83639 1615.27261,1503.83639 1608.15221,1503.83639 L1561.96688,1503.83639 C1556.64928,1503.83639 1554.84648,1502.05954 1553.06962,1494.93914 C1535.31401,1415.00647 1529.99641,1386.58972 1503.34354,1292.4422 C1476.69068,1192.97707 1451.82764,1079.28411 1432.2822,992.244018 C1407.41916,1098.82955 1402.08859,1123.69259 1345.24211,1342.18124 C1325.69667,1416.78333 1320.37907,1439.86951 1306.16421,1496.71599 C1304.38735,1503.83639 1304.38735,1503.83639 1297.27992,1503.83639 L1242.2103,1503.83639 C1236.87972,1503.83639 1236.87972,1500.28268 1235.11584,1493.17525 C1190.02687,1317.34511 1145.02611,1141.49237 1100.11355,965.617091 C1084.12183,903.440038 1075.23754,843.052813 1039.71336,843.052813 C1018.39106,843.052813 1014.85032,871.469568 1014.85032,910.560439 L1014.85032,1203.65119 C1013.07346,1271.14584 1013.07346,1370.62394 949.13252,1448.77974 C931.363942,1470.08907 874.530432,1530.48926 760.837473,1530.48926 C709.321567,1530.48926 643.590799,1516.2744 593.86472,1464.75849 C531.687667,1399.04069 529.91081,1319.09506 528.146921,1246.26983 L528.146921,926.52622 C528.146921,851.924132 521.03949,832.378696 464.193011,832.378696 C460.639295,832.378696 460.639295,830.614808 458.862437,825.284235 L458.862437,789.760049 C458.862437,782.652618 458.862437,779.098902 467.746726,779.098902 L712.875283,779.098902 C714.652141,779.098902 718.205856,779.098902 718.205856,786.206333 L718.205856,825.284235 C718.205856,832.378696 716.428998,832.378696 707.544709,832.378696 C643.590799,832.378696 647.157484,859.031563 647.157484,933.633651 L647.157484,1164.54734 L648.934342,1248.03372 C650.7112,1288.90145 652.488057,1327.97935 672.033493,1368.83411 C684.458528,1397.25087 723.536429,1457.65106 798.151487,1457.65106 C840.783104,1457.65106 881.650833,1439.88248 911.844446,1404.3583 C956.252921,1351.0785 963.360352,1278.2403 963.360352,1200.0845 L963.360352,922.972504 C963.360352,851.924132 958.029779,834.155554 886.968437,828.824981 C881.650833,828.824981 879.861006,828.824981 879.861006,823.494407 L879.861006,787.970221 C879.861006,782.639648 879.861006,780.86279 885.191579,780.86279 L1265.30945,780.86279 Z" id="Path" fill="#FFFFFF"></path>
    </g>
</svg>