<?xml version="1.0" encoding="UTF-8"?>
<svg width="616px" height="621px" viewBox="0 0 616 621" version="1.1" xmlns="http://www.w3.org/2000/svg" xmlns:xlink="http://www.w3.org/1999/xlink">
    <!-- Generator: Sketch 52 (66869) - http://www.bohemiancoding.com/sketch -->
    <title>ring4</title>
    <desc>Created with Sketch.</desc>
    <g id="Page-1" stroke="none" stroke-width="1" fill="none" fill-rule="evenodd">
        <path d="M573.125451,161.836282 L605.481279,250.82119 C619.420314,289.165096 619.420314,331.200879 605.481127,369.541184 L573.125412,458.525781 C559.181482,496.872111 532.188385,529.073792 496.884607,549.475504 L414.957009,596.824473 C379.651545,617.229481 338.291339,624.531688 298.147467,617.444581 L204.982174,601.002118 C164.832487,593.913985 128.463798,572.894635 102.26377,541.6342 L41.4543963,469.092024 C15.2539679,437.835131 0.892578125,398.334028 0.892578125,357.529991 L0.892578125,262.831966 C0.892578125,222.027929 15.2539679,182.526827 41.4544722,151.269842 L102.263694,78.7278479 C128.464837,47.4701009 164.833858,26.4516095 204.982493,19.3636622 L298.147148,2.92131135 C338.293855,-4.1662958 379.653759,3.13375644 414.956934,23.5374405 L496.884518,70.8864014 C532.188432,91.2882217 559.181494,123.489879 573.125451,161.836282 Z M490.880218,81.2762228 L408.952289,33.9270624 C376.093857,14.9363318 337.59895,8.14195367 300.233079,14.7386246 L207.068424,31.1809754 C169.699893,37.7781158 135.848354,57.3416968 111.460093,86.4366892 L50.6508719,158.978684 C26.2617053,188.074757 12.8925781,224.846635 12.8925781,262.831966 L12.8925781,357.529991 C12.8925781,395.515323 26.2617053,432.2872 50.650796,461.383183 L111.460413,533.92565 C135.847744,563.023273 169.698737,582.587516 207.068105,589.184805 L300.233398,605.627268 C337.596227,612.223402 376.091461,605.42701 408.952365,586.434852 L490.880218,539.085735 C523.74133,520.095615 548.867706,490.120857 561.847835,454.425019 L594.203429,365.440753 C607.179598,329.749271 607.179598,290.616426 594.203512,254.921431 L561.847873,165.937044 C548.867706,130.2411 523.74133,100.266342 490.880218,81.2762228 Z" id="ring4" fill="#FEFEFE" fill-rule="nonzero"></path>
    </g>
</svg>