<?xml version="1.0" encoding="UTF-8"?>
<svg width="483px" height="478px" viewBox="0 0 483 478" version="1.1" xmlns="http://www.w3.org/2000/svg" xmlns:xlink="http://www.w3.org/1999/xlink">
    <!-- Generator: Sketch 52 (66869) - http://www.bohemiancoding.com/sketch -->
    <title>ring3</title>
    <desc>Created with Sketch.</desc>
    <g id="Page-1" stroke="none" stroke-width="1" fill="none" fill-rule="evenodd">
        <path d="M432.601019,89.4397755 C448.40001,102.693424 459.022697,121.086931 462.604275,141.394368 L481.068832,246.112601 C484.650867,266.418566 480.962853,287.336834 470.651961,305.193249 L417.471333,397.282948 C407.162052,415.136575 390.887085,428.788819 371.508202,435.842644 L271.560696,472.21381 C252.181904,479.262063 230.939189,479.262063 211.559757,472.213577 L111.612837,435.842624 C92.2327187,428.789827 75.9603863,415.138903 65.649841,397.283087 L12.4690517,305.193109 C2.15824095,287.336834 -1.52977343,266.418566 2.05223467,246.112754 L20.5207224,141.394209 C24.102658,121.084747 34.7227834,102.691998 50.5201468,89.4397153 L131.998525,21.0882482 C147.795564,7.83623722 167.759372,0.572265625 188.381776,0.572265625 L294.739318,0.572265625 C315.361106,0.572265625 335.32486,7.83583132 351.126514,21.0883066 L432.601019,89.4397755 Z M427.459395,95.568699 L345.985278,27.2175554 C331.624636,15.1736227 313.480948,8.57226562 294.739318,8.57226562 L188.381776,8.57226562 C169.639748,8.57226562 151.496351,15.173868 137.140077,27.2172319 L55.6616989,95.568699 C41.3055315,107.611974 31.6543695,124.326597 28.3991326,142.783688 L9.93062108,247.502368 C6.67538173,265.955782 10.0269149,284.965542 19.3969246,301.192537 L72.5777139,393.282515 C81.947765,409.509582 96.7357563,421.915287 114.348605,428.32494 L214.294829,464.695639 C231.907268,471.101454 251.213826,471.101454 268.825624,464.695873 L368.772181,428.325052 C386.383933,421.914454 401.174674,409.507253 410.543461,393.282376 L463.724088,301.192677 C473.094179,284.965542 476.445712,265.955782 473.190421,247.502074 L454.72584,142.783706 C451.471028,124.329023 441.81745,107.613557 427.459395,95.568699 Z" id="ring3" fill="#F06022" fill-rule="nonzero"></path>
    </g>
</svg>