<?xml version="1.0" encoding="UTF-8"?>
<svg width="260px" height="37px" viewBox="0 0 260 37" version="1.1" xmlns="http://www.w3.org/2000/svg" xmlns:xlink="http://www.w3.org/1999/xlink">
    <!-- Generator: Sketch 46.2 (44496) - http://www.bohemiancoding.com/sketch -->
    <title>Group</title>
    <desc>Created with Sketch.</desc>
    <defs>
        <linearGradient x1="0%" y1="0%" x2="100%" y2="100%" id="linearGradient-1">
            <stop stop-color="#FAD961" offset="0%"></stop>
            <stop stop-color="#F76B1C" offset="100%"></stop>
        </linearGradient>
    </defs>
    <g id="Logo" stroke="none" stroke-width="1" fill="none" fill-rule="evenodd">
        <g id="Artboard" transform="translate(-10.000000, -10.000000)">
            <g id="Group" transform="translate(10.000000, 10.000000)">
                <path d="M13.1214393,6.25824176 C12.5937005,5.57325665 11.9660206,5.0322822 11.2383808,4.6353022 C10.510741,4.23832219 9.80310189,4.03983516 9.11544228,4.03983516 C8.36381433,4.03983516 7.68416096,4.22664648 7.07646177,4.60027473 C6.46876258,4.97390297 5.98900726,5.491526 5.63718141,6.15315934 C5.28535556,6.81479269 5.10944528,7.55814606 5.10944528,8.38324176 C5.10944528,9.20833746 5.28535556,9.95169083 5.63718141,10.6133242 C5.98900726,11.2749575 6.46876258,11.7964725 7.07646177,12.1778846 C7.68416096,12.5592968 8.36381433,12.75 9.11544228,12.75 C9.75512564,12.75 10.438777,12.5787563 11.1664168,12.2362637 C11.8940566,11.8937712 12.5457243,11.4267429 13.1214393,10.8351648 L16,13.8241758 C15.0884512,14.7893821 13.9890119,15.5599788 12.7016492,16.135989 C11.4142864,16.7119992 10.1389369,17 8.87556222,17 C7.1963934,17 5.68116618,16.6302693 4.32983508,15.8907967 C2.97850399,15.1513241 1.91904432,14.1277538 1.15142429,12.8200549 C0.383804258,11.5123561 0,10.0490008 0,8.42994505 C0,6.84202503 0.39180018,5.40591302 1.17541229,4.12156593 C1.95902441,2.83721885 3.03847388,1.82921611 4.4137931,1.09752747 C5.78911232,0.365838832 7.33232528,0 9.04347826,0 C10.3068529,0 11.5702086,0.264649368 12.8335832,0.793956044 C14.0969578,1.32326272 15.1524196,2.03158897 16,2.91895604 L13.1214393,6.25824176 Z" id="Path" fill="#000000"></path>
                <polygon id="Path" fill="#000000" points="23 0 28.0045113 0 28.0045113 6.7660485 33.9954887 6.7660485 33.9954887 0 39 0 39 17 33.9954887 17 33.9954887 10.6704708 28.0045113 10.6704708 28.0045113 17 23 17"></polygon>
                <path d="M57.1638331,17 L54.8639876,12.4165478 L52.1437403,12.4165478 L52.1437403,17 L47,17 L47,0 L55.0865533,0 C57.4111399,0 59.2122553,0.525434593 60.4899536,1.57631954 C61.7676519,2.62720449 62.4064915,4.11458857 62.4064915,6.03851641 C62.4064915,7.28341088 62.1550772,8.3625727 61.6522411,9.27603424 C61.149405,10.1894958 60.4281345,10.9129788 59.488408,11.446505 L63,17 L57.1638331,17 Z M52.1437403,8.5363766 L55.0865533,8.5363766 C55.8614155,8.5363766 56.4590396,8.33428638 56.8794436,7.93009986 C57.2998475,7.52591334 57.5100464,6.94389348 57.5100464,6.18402282 C57.5100464,5.44031963 57.2998475,4.87042519 56.8794436,4.4743224 C56.4590396,4.07821961 55.8614155,3.88017118 55.0865533,3.88017118 L52.1437403,3.88017118 L52.1437403,8.5363766 Z" id="Combined-Shape" fill="#000000"></path>
                <polygon id="Path" fill="#000000" points="69 0 74 0 74 17 69 17"></polygon>
                <path d="M94.160828,5.64334705 C93.2691038,5.13031294 92.2898143,4.69501779 91.2229299,4.33744856 C90.1560456,3.97987933 89.2802582,3.80109739 88.5955414,3.80109739 C88.1656029,3.80109739 87.8272305,3.88271523 87.580414,4.04595336 C87.3335975,4.20919149 87.2101911,4.44627188 87.2101911,4.75720165 C87.2101911,5.19250332 87.4490422,5.53063437 87.9267516,5.77160494 C88.404461,6.01257551 89.1608229,6.27297528 90.1958599,6.55281207 C91.3742097,6.87928833 92.3455376,7.20964625 93.1098726,7.54389575 C93.8742076,7.87814525 94.5390099,8.3872851 95.1042994,9.07133059 C95.6695888,9.75537608 95.9522293,10.6570589 95.9522293,11.776406 C95.9522293,12.9112997 95.6457037,13.8712809 95.0326433,14.6563786 C94.4195829,15.4414763 93.5915657,16.0283474 92.5485669,16.4170096 C91.505568,16.8056718 90.3391784,17 89.0493631,17 C87.6162349,17 86.1791473,16.7629196 84.7380573,16.2887517 C83.2969673,15.8145838 82.0509607,15.1655277 81,14.3415638 L82.8630573,10.6570645 C83.7070106,11.3722029 84.7380512,11.9746203 85.9562102,12.4643347 C87.1743691,12.9540491 88.2213332,13.1989026 89.0971338,13.1989026 C89.6385377,13.1989026 90.060508,13.0978519 90.3630573,12.8957476 C90.6656066,12.6936433 90.816879,12.4060375 90.816879,12.0329218 C90.816879,11.5820736 90.5700662,11.2361695 90.0764331,10.9951989 C89.5828001,10.7542283 88.8184765,10.5016017 87.7834395,10.2373114 C86.6210133,9.94192811 85.6576471,9.63488957 84.8933121,9.31618656 C84.1289771,8.99748355 83.4681557,8.50388995 82.910828,7.83539095 C82.3535004,7.16689195 82.0748408,6.28852853 82.0748408,5.20027435 C82.0748408,4.14311314 82.3614621,3.22199752 82.9347134,2.43689986 C83.5079646,1.6518022 84.3160776,1.04938481 85.3590764,0.62962963 C86.4020753,0.209874444 87.6162351,0 89.0015924,0 C90.2595604,0 91.5095479,0.17489537 92.7515924,0.524691358 C93.9936368,0.874487346 95.0764285,1.33698844 96,1.9122085 L94.160828,5.64334705 Z" id="Path" fill="#000000"></path>
                <path d="M121.125984,0 C122.401581,0 123.51968,0.173797596 124.480315,0.521398003 C125.44095,0.868998409 126.1811,1.36614037 126.700787,2.0128388 C127.220475,2.65953723 127.480315,3.41939649 127.480315,4.29243937 C127.480315,5.14931479 127.228349,5.90917405 126.724409,6.57203994 C126.22047,7.23490583 125.535437,7.69567155 124.669291,7.95435093 C125.67717,8.16452792 126.484249,8.66166988 127.090551,9.44579173 C127.696853,10.2299136 128,11.1635704 128,12.2467903 C128,13.2006705 127.732286,14.037324 127.19685,14.756776 C126.661415,15.476228 125.90158,16.0299553 124.917323,16.4179743 C123.933066,16.8059934 122.787408,17 121.480315,17 L113,17 L113,0 L121.125984,0 Z M120.866142,6.66904422 C121.354333,6.66904422 121.740156,6.53566467 122.023622,6.26890157 C122.307088,6.00213847 122.448819,5.64241786 122.448819,5.18972896 C122.448819,4.75320752 122.307088,4.40965413 122.023622,4.15905849 C121.740156,3.90846285 121.354333,3.7831669 120.866142,3.7831669 L117.889764,3.7831669 L117.889764,6.66904422 L120.866142,6.66904422 Z M120.866142,13.2168331 C121.496066,13.2330006 121.996061,13.0955792 122.366142,12.8045649 C122.736222,12.5135506 122.92126,12.1174538 122.92126,11.6162625 C122.92126,11.1474061 122.736222,10.7796019 122.366142,10.5128388 C121.996061,10.2460757 121.496066,10.1207798 120.866142,10.1369472 L117.889764,10.1369472 L117.889764,13.2168331 L120.866142,13.2168331 Z" id="Combined-Shape" fill="#000000"></path>
                <path d="M145.163833,17 L142.863988,12.4165478 L140.14374,12.4165478 L140.14374,17 L135,17 L135,0 L143.086553,0 C145.41114,0 147.212255,0.525434593 148.489954,1.57631954 C149.767652,2.62720449 150.406491,4.11458857 150.406491,6.03851641 C150.406491,7.28341088 150.155077,8.3625727 149.652241,9.27603424 C149.149405,10.1894958 148.428135,10.9129788 147.488408,11.446505 L151,17 L145.163833,17 Z M140.14374,8.5363766 L143.086553,8.5363766 C143.861416,8.5363766 144.45904,8.33428638 144.879444,7.93009986 C145.299848,7.52591334 145.510046,6.94389348 145.510046,6.18402282 C145.510046,5.44031963 145.299848,4.87042519 144.879444,4.4743224 C144.45904,4.07821961 143.861416,3.88017118 143.086553,3.88017118 L140.14374,3.88017118 L140.14374,8.5363766 Z" id="Combined-Shape" fill="#000000"></path>
                <path d="M169.740648,17 L168.769327,14.2838802 L162.064838,14.2838802 L161.069825,17 L156,17 L163.083541,0 L168.153367,0 L175,17 L169.740648,17 Z M163.438903,10.5977175 L167.466334,10.5977175 L165.476309,5.04422254 L163.438903,10.5977175 Z" id="Combined-Shape" fill="#000000"></path>
                <polygon id="Path" fill="#000000" points="179 0 184.292715 0 188.107285 11.7617689 191.921854 0 197 0 190.539073 17 185.389404 17"></polygon>
                <path d="M213.740648,17 L212.769327,14.2838802 L206.064838,14.2838802 L205.069825,17 L200,17 L207.083541,0 L212.153367,0 L219,17 L213.740648,17 Z M207.438903,10.5977175 L211.466334,10.5977175 L209.476309,5.04422254 L207.438903,10.5977175 Z" id="Combined-Shape" fill="#000000"></path>
                <polygon id="Path" fill="#000000" points="222 0 237 0 237 4.0256776 232.032468 4.0256776 232.032468 17 226.943182 17 226.943182 4.0256776 222 4.0256776"></polygon>
                <path d="M253.740648,17 L252.769327,14.2838802 L246.064838,14.2838802 L245.069825,17 L240,17 L247.083541,0 L252.153367,0 L259,17 L253.740648,17 Z M247.438903,10.5977175 L251.466334,10.5977175 L249.476309,5.04422254 L247.438903,10.5977175 Z" id="Combined-Shape" fill="#000000"></path>
                <rect id="Rectangle" fill="url(#linearGradient-1)" x="0" y="27" width="260" height="10"></rect>
            </g>
        </g>
    </g>
</svg>