<svg id="Layer_1" data-name="Layer 1" xmlns="http://www.w3.org/2000/svg" viewBox="0 0 100 100"><defs><style>.cls-1{fill:none;}.cls-2{fill:#10334c;}.cls-3{fill:#f26122;}.cls-4{fill:#40a7c3;}</style></defs><title>cb-logo-ico</title><circle class="cls-1" cx="50" cy="50" r="50"/><path class="cls-2" d="M50,30.77A19.23,19.23,0,1,0,69.23,50,19.26,19.26,0,0,0,50,30.77Zm0,30.77A11.54,11.54,0,1,1,61.54,50,11.56,11.56,0,0,1,50,61.54Z"/><path class="cls-3" d="M50,23.08a26.82,26.82,0,0,0-19.23,8.11V12.33a42.9,42.9,0,0,0-7.69,5.09V50A26.92,26.92,0,1,0,50,23.08Zm0,46.15A19.23,19.23,0,1,1,69.23,50,19.26,19.26,0,0,1,50,69.23Z"/><path class="cls-2" d="M84.62,50a34.45,34.45,0,0,0-3.15-14.39l13.39-8-2-3.3A50,50,0,1,0,50,100,49.74,49.74,0,0,0,92.49,76.35l2-3.27L81.26,64.86A34.42,34.42,0,0,0,84.62,50ZM38.46,9.3A42.28,42.28,0,0,1,84.15,25L77.5,29q-.57-.74-1.17-1.44l-.27-.32c-.27-.3-.54-.61-.82-.9s-.44-.47-.67-.7-.21-.21-.32-.32a34.15,34.15,0,0,0-17.09-9.2l-.4-.08c-.41-.08-.83-.16-1.25-.22l-.71-.1-1.06-.14-1-.09c-.27,0-.55-.05-.83-.06-.58,0-1.18,0-1.77,0h-.19c-.93,0-1.86,0-2.77.12-.29,0-.56.06-.84.09-.66.07-1.32.15-2,.26l-.9.17c-.63.12-1.25.25-1.86.41l-.86.23c-.61.17-1.22.36-1.82.56l-.45.14ZM23.08,17.42a42.9,42.9,0,0,1,7.69-5.09h0v8.9h0v10a27,27,0,0,1,8.52-5.88l.11,0c.73-.31,1.47-.58,2.22-.83l.29-.11c.7-.22,1.42-.39,2.14-.56.16,0,.31-.09.48-.12.69-.14,1.4-.24,2.12-.33.19,0,.38-.07.58-.09.91-.09,1.83-.14,2.77-.14h0c.84,0,1.67.05,2.49.12l.47.05h.1a26.35,26.35,0,0,1,4.43.9c.16,0,.32.07.48.12l0,0a26.63,26.63,0,0,1,9.06,4.9l.07.05c.61.51,1.19,1,1.75,1.6.15.15.3.3.44.46.34.35.67.71,1,1.09s.47.54.7.82c.09.12.18.25.28.37.59.77,1.13,1.57,1.64,2.39a26.71,26.71,0,0,1-.18,28.34c-.27.42-.54.83-.82,1.23l-.42.56c-.4.54-.82,1.06-1.26,1.57-.3.34-.6.67-.91,1l-.57.57c-.53.52-1.07,1-1.64,1.5l-.09.07a23.6,23.6,0,0,1-1.91,1.42l-.17.12a26.89,26.89,0,0,1-4.44,2.42l-.09,0q-1.17.48-2.37.87a1.66,1.66,0,0,0-.21.06c-.75.23-1.52.43-2.3.59l-.2,0c-.79.16-1.58.28-2.39.37l-.5,0c-.82.07-1.64.12-2.47.12h0A26.94,26.94,0,0,1,23.08,50h0V28.27h0Zm60.7,58.05a42.29,42.29,0,0,1-68.4-49.73V50h0v.47h0A34.47,34.47,0,0,0,25.69,74.61l0,0c.38.38.77.74,1.17,1.1l.07.06c.38.35.77.68,1.17,1l.12.09c.39.32.78.63,1.18.92l.15.11c.4.29.79.57,1.2.84l.21.13c.39.26.78.52,1.18.76l.26.15c.39.23.78.46,1.18.67l.32.17c.39.2.77.4,1.17.59l.35.16c.39.18.78.36,1.17.52l.4.16,1.16.46.45.15,1.15.38c.17.06.34.1.51.15l1.12.32.55.12,1.11.26.6.1,1.1.2.57.07c.38,0,.76.11,1.15.15l.52,0c1,.08,2,.14,3,.14.64,0,1.27,0,1.9-.06l.65,0,1.2-.1.86-.11.94-.13,1-.18.73-.15c.39-.08.77-.17,1.15-.27l.49-.13c.44-.11.88-.24,1.32-.37l.14,0a34.29,34.29,0,0,0,13.55-8l.58-.56.32-.34c.36-.36.7-.74,1-1.12l.12-.14c.41-.47.81-.94,1.2-1.43Z"/><path class="cls-4" d="M47.07,15.52h.18c.91-.07,1.83-.12,2.75-.12.5,0,1,0,1.48,0h.41c.56,0,1.11.08,1.65.13l.2,0h0c.51.05,1,.13,1.53.2l.24,0h0c.48.07,1,.16,1.44.26l.21,0h0a34.52,34.52,0,0,1,9.22,3.36h0a34.69,34.69,0,0,1,8.86,6.85h0c.28.29.55.6.82.9h0l.28.33c.4.47.79,1,1.16,1.43l6.65-4A41.94,41.94,0,0,0,50,7.69c-.91,0-1.81,0-2.71.1l-.63,0c-.79.06-1.58.14-2.37.25l-.26,0A42.68,42.68,0,0,0,38.46,9.3v8.07h0A34.22,34.22,0,0,1,47.07,15.52Z"/><path class="cls-4" d="M76,72.82h0l-.11.14h0c-.34.38-.68.76-1,1.12h0l-.46.47-.44.43h0c-.48.46-1,.91-1.47,1.34h0c-.5.43-1,.84-1.53,1.24h0c-.52.4-1,.78-1.59,1.15h0c-.54.37-1.08.71-1.64,1.05l0,0c-.56.32-1.12.64-1.7.94l0,0q-.85.44-1.74.84h0c-.59.27-1.2.52-1.81.75h0c-.61.23-1.24.44-1.87.64h0l-.14,0h0c-.54.17-1.09.32-1.64.46l-.17,0h0c-.44.11-.87.21-1.31.3l-.57.12h0l-1,.18h0l-.94.13h0l-.86.11h0l-1.2.1h0l-.65,0h0c-.63,0-1.26.06-1.9.06h0c-1,0-2,0-2.95-.13h0l-.52,0h0l-.71-.09-.43-.06-.57-.07h0L44,84.08,43.67,84l-.6-.1h0l-.85-.2L42,83.66l-.55-.12h0l-.91-.25-.2-.06c-.17,0-.34-.09-.51-.15h0c-.33-.1-.64-.21-1-.32l-.18-.06-.45-.15h0l-1-.38L37,82.08l-.4-.16h0l-1-.47-.12,0-.35-.16h0c-.35-.16-.69-.34-1-.52l-.12-.06-.32-.17h0l-1.05-.61-.12-.06-.26-.15h0L31.09,79,31,78.9l-.21-.13h0c-.37-.25-.73-.51-1.09-.77l-.1-.07-.15-.11h0c-.37-.28-.73-.57-1.09-.86l-.08-.06-.12-.09h0c-.37-.3-.73-.62-1.09-.94L27,75.8l-.07-.06h0c-.38-.33-.74-.68-1.1-1l-.06-.06,0,0h0q-.54-.52-1.05-1.08l-.1-.11c-.33-.36-.66-.73-1-1.11a.69.69,0,0,0-.11-.13Q23,71.6,22.51,71l-.09-.12c-.31-.4-.6-.81-.89-1.22l-.08-.12c-.29-.41-.56-.84-.83-1.27l-.07-.11c-.28-.44-.54-.89-.79-1.34l-.05-.09c-.26-.46-.5-.92-.73-1.4a.43.43,0,0,1,0-.07c-.23-.48-.46-1-.67-1.45l0-.06c-.22-.5-.42-1-.61-1.51l0,0c-.19-.51-.37-1-.55-1.56v0a34.24,34.24,0,0,1-1.6-8.39h0c0-.57-.05-1.15-.06-1.73v0h0V50h0V25.74A42.37,42.37,0,0,0,8.89,40c0,.12-.05.23-.08.35-.22.95-.42,1.91-.58,2.89a.59.59,0,0,1,0,.13c-.15,1-.26,2-.35,2.94,0,.22,0,.44-.05.66-.07,1-.12,2-.12,3A42.31,42.31,0,0,0,83.78,75.47l-6.59-4.08C76.8,71.88,76.4,72.35,76,72.82Z"/></svg>