<?xml version="1.0" encoding="UTF-8"?>
<svg width="30px" height="30px" viewBox="0 0 30 30" version="1.1" xmlns="http://www.w3.org/2000/svg" xmlns:xlink="http://www.w3.org/1999/xlink">
    <!-- Generator: Sketch 46.2 (44496) - http://www.bohemiancoding.com/sketch -->
    <title>Group</title>
    <desc>Created with Sketch.</desc>
    <defs>
        <linearGradient x1="0%" y1="0%" x2="100%" y2="100%" id="linearGradient-1">
            <stop stop-color="#FAD961" offset="0%"></stop>
            <stop stop-color="#F76B1C" offset="100%"></stop>
        </linearGradient>
    </defs>
    <g id="Logo" stroke="none" stroke-width="1" fill="none" fill-rule="evenodd">
        <g id="Artboard-2" transform="translate(-11.000000, -8.000000)">
            <g id="Group" transform="translate(11.000000, 8.000000)">
                <polygon id="Rectangle-2" fill="url(#linearGradient-1)" points="0 10 30 0 30 20 0 30"></polygon>
                <path d="M15.2062792,13 L23.1259843,13 C24.4015812,13 25.5196802,13.1737976 26.480315,13.521398 C27.4409497,13.8689984 28.1810998,14.3661404 28.7007874,15.0128388 C29.220475,15.6595372 29.480315,16.4193965 29.480315,17.2924394 C29.480315,18.1493148 29.228349,18.9091741 28.7244094,19.5720399 C28.2204699,20.2349058 27.5354374,20.6956716 26.6692913,20.9543509 C27.6771704,21.1645279 28.4842489,21.6616699 29.0905512,22.4457917 C29.6968534,23.2299136 30,24.1635704 30,25.2467903 C30,26.2006705 29.7322861,27.037324 29.1968504,27.756776 C28.6614146,28.476228 27.9015797,29.0299553 26.9173228,29.4179743 C25.9330659,29.8059934 24.7874081,30 23.480315,30 L15,30 L15,14.7452475 C14.3153344,15.2931782 13.5492206,15.7567565 12.7016492,16.135989 C11.4142864,16.7119992 10.1389369,17 8.87556222,17 C7.1963934,17 5.68116618,16.6302693 4.32983508,15.8907967 C2.97850399,15.1513241 1.91904432,14.1277538 1.15142429,12.8200549 C0.383804258,11.5123561 0,10.0490008 0,8.42994505 C0,6.84202503 0.39180018,5.40591302 1.17541229,4.12156593 C1.95902441,2.83721885 3.03847388,1.82921611 4.4137931,1.09752747 C5.78911232,0.365838832 7.33232528,0 9.04347826,0 C10.3068529,0 11.5702086,0.264649368 12.8335832,0.793956044 C14.0969578,1.32326272 15.1524196,2.03158897 16,2.91895604 L13.1214393,6.25824176 C12.5937005,5.57325665 11.9660206,5.0322822 11.2383808,4.6353022 C10.510741,4.23832219 9.80310189,4.03983516 9.11544228,4.03983516 C8.36381433,4.03983516 7.68416096,4.22664648 7.07646177,4.60027473 C6.46876258,4.97390297 5.98900726,5.491526 5.63718141,6.15315934 C5.28535556,6.81479269 5.10944528,7.55814606 5.10944528,8.38324176 C5.10944528,9.20833746 5.28535556,9.95169083 5.63718141,10.6133242 C5.98900726,11.2749575 6.46876258,11.7964725 7.07646177,12.1778846 C7.68416096,12.5592968 8.36381433,12.75 9.11544228,12.75 C9.75512564,12.75 10.438777,12.5787563 11.1664168,12.2362637 C11.8940566,11.8937712 12.5457243,11.4267429 13.1214393,10.8351648 L15.2062792,13 Z M22.8661417,19.6690442 C23.3543331,19.6690442 23.7401561,19.5356647 24.023622,19.2689016 C24.307088,19.0021385 24.4488189,18.6424179 24.4488189,18.189729 C24.4488189,17.7532075 24.307088,17.4096541 24.023622,17.1590585 C23.7401561,16.9084628 23.3543331,16.7831669 22.8661417,16.7831669 L19.8897638,16.7831669 L19.8897638,19.6690442 L22.8661417,19.6690442 Z M22.8661417,26.2168331 C23.4960661,26.2330006 23.9960611,26.0955792 24.3661417,25.8045649 C24.7362223,25.5135506 24.9212598,25.1174538 24.9212598,24.6162625 C24.9212598,24.1474061 24.7362223,23.7796019 24.3661417,23.5128388 C23.9960611,23.2460757 23.4960661,23.1207798 22.8661417,23.1369472 L19.8897638,23.1369472 L19.8897638,26.2168331 L22.8661417,26.2168331 Z" id="Combined-Shape" fill="#000000"></path>
            </g>
        </g>
    </g>
</svg>