<?xml version="1.0" encoding="UTF-8"?>
<svg width="210px" height="212px" viewBox="0 0 210 212" version="1.1" xmlns="http://www.w3.org/2000/svg" xmlns:xlink="http://www.w3.org/1999/xlink">
    <!-- Generator: Sketch 52 (66869) - http://www.bohemiancoding.com/sketch -->
    <title>logo</title>
    <desc>Created with Sketch.</desc>
    <g id="Page-1" stroke="none" stroke-width="1" fill="none" fill-rule="evenodd">
        <g id="logo">
            <path d="M207.981791,95.3831066 L190.210542,46.6392594 C187.722723,39.8272672 182.890462,34.075176 176.597285,30.4467553 L131.595647,4.51399196 C126.899015,1.80621535 121.543615,0.37109375 116.118462,0.37109375 C114.320412,0.37109375 112.514611,0.529692094 110.743686,0.84302053 L59.5728747,9.84831187 C52.4155488,11.1093621 45.9014909,14.8615668 41.2319848,20.4202454 L7.83242209,60.154933 C3.16291599,65.7097433 0.58984375,72.7654354 0.58984375,80.0184085 L0.58984375,131.887804 C0.58984375,139.140777 3.16291599,146.1926 7.83242209,151.751279 L41.2319848,191.485967 C45.9014909,197.040777 52.4155488,200.792982 59.5728747,202.054032 L110.743686,211.063191 C112.514611,211.372652 114.324287,211.53125 116.118462,211.53125 C121.543615,211.53125 126.899015,210.099997 131.595647,207.39222 L176.597285,181.455588 C182.890462,177.831036 187.722723,172.078945 190.210542,165.263084 L207.981791,116.519237 C210.469611,109.707245 210.469611,102.198967 207.981791,95.3831066" id="Fill-2" fill="#FEFEFE"></path>
            <path d="M171.400207,55.5390625 C170.199911,55.5390625 168.991847,55.2375445 167.880894,54.6077917 L125.078135,30.3298673 C120.778049,27.8910064 115.71661,27.0131692 110.826087,27.860473 L80.2049643,33.1656632 C76.3710118,33.8335828 72.7118595,31.3145716 72.0359651,27.5436882 C71.3600707,23.7766215 73.9199236,20.1813055 77.7577606,19.5172026 L108.374999,14.2120124 C116.52846,12.7998394 124.961602,14.2616293 132.132297,18.3263973 L174.931172,42.6081384 C178.302875,44.5202969 179.460441,48.7606324 177.514331,52.0735138 C176.205272,54.2948236 173.835757,55.5390625 171.400207,55.5390625" id="Fill-4" fill="#F06022"></path>
            <path d="M114.598808,196.3125 C112.567093,196.3125 110.523746,196.135305 108.503662,195.780915 L70.0135153,189.039807 C61.8788997,187.614544 54.4732202,183.369571 49.161293,177.079154 L24.0401423,147.33353 C18.7282151,141.046965 15.8085938,133.065492 15.8085938,124.856748 L15.8085938,75.8508136 C15.8085938,71.9871952 18.9569769,68.8554688 22.845928,68.8554688 C26.7310018,68.8554688 29.8832622,71.9871952 29.8832622,75.8508136 L29.8832622,124.856748 C29.8832622,129.783535 31.6396878,134.5755 34.8268441,138.342817 L59.9479948,168.088441 C63.1351511,171.85961 67.5785589,174.409675 72.4562263,175.264833 L110.950251,182.005941 C115.827918,182.861099 120.880065,181.975125 125.176135,179.517509 L167.896437,155.006838 C171.26195,153.076955 175.569651,154.224869 177.516066,157.568459 C179.458603,160.915901 178.303161,165.19169 174.937648,167.125425 L132.213469,191.628392 C126.835627,194.713894 120.748236,196.3125 114.598808,196.3125" id="Fill-6" fill="#F06022"></path>
            <path d="M145.955741,129.537428 C144.252459,134.161494 140.939439,138.062328 136.62082,140.516699 L119.892018,150.053354 C115.573399,152.515419 110.494734,153.396377 105.587567,152.542348 L86.5591394,149.233948 C81.6480745,148.376072 77.181344,145.829374 73.9813565,142.067031 L61.5594804,127.456214 C58.3555952,123.686177 56.5938481,118.904385 56.5938481,113.987949 L56.5938481,104.451294 L56.5938481,94.9146389 C56.5938481,89.9982029 58.3555952,85.212564 61.5594804,81.446374 L73.9813565,66.835557 C77.181344,63.0693669 81.6480745,60.5226684 86.5591394,59.6686396 L105.587567,56.3563928 C106.807538,56.1448091 108.035304,56.0409407 109.26307,56.0409407 C112.969755,56.0409407 116.645258,56.9988379 119.892018,58.8453866 L136.62082,68.3820415 C140.939439,70.8402596 144.252459,74.7410938 145.955741,79.3613127 L152.56619,97.2843765 C154.27337,101.904595 154.27337,106.997992 152.56619,111.618211 L145.955741,129.537428 Z M165.865042,92.5064316 L159.254593,74.5833678 C156.417089,66.8817207 150.89409,60.3803303 143.69899,56.2833002 L126.96629,46.7466453 C119.77119,42.6496153 111.30545,41.1762233 103.128137,42.5996046 L84.0997093,45.9118514 C75.9223964,47.3352328 68.4778456,51.5784479 63.138037,57.8567137 L56.5938481,65.5583607 L56.5938481,41.5993907 C56.5938481,37.7408732 53.4250419,34.6132812 49.5156783,34.6132812 C45.6102124,34.6132812 42.4414062,37.7408732 42.4414062,41.5993907 L42.4414062,94.9146389 L42.4414062,104.451294 L42.4414062,113.987949 C42.4414062,122.185856 45.3802499,130.152944 50.7161609,136.435057 L63.138037,151.045874 C68.4778456,157.32414 75.9223964,161.563508 84.0997093,162.986889 L103.132035,166.302983 C105.162721,166.653058 107.216793,166.826172 109.259173,166.826172 C115.436981,166.826172 121.560221,165.229677 126.96629,162.152095 L143.69899,152.61544 C150.89409,148.51841 156.417089,142.01702 159.254593,134.315373 L165.865042,116.396156 C168.706444,108.694509 168.706444,100.208079 165.865042,92.5064316 Z" id="Fill-8" fill="#142148"></path>
        </g>
    </g>
</svg>