<?xml version="1.0" encoding="UTF-8"?>
<svg width="365px" height="368px" viewBox="0 0 365 368" version="1.1" xmlns="http://www.w3.org/2000/svg" xmlns:xlink="http://www.w3.org/1999/xlink">
    <!-- Generator: Sketch 52 (66869) - http://www.bohemiancoding.com/sketch -->
    <title>ring2</title>
    <desc>Created with Sketch.</desc>
    <g id="Page-1" stroke="none" stroke-width="1" fill="none" fill-rule="evenodd">
        <path d="M350.895302,103.064845 C359.637629,113.481914 364.429688,126.653007 364.429688,140.257847 L364.429688,227.644437 C364.429688,241.251741 359.638537,254.419287 350.895302,264.837438 L294.722583,331.779928 C285.974946,342.202554 273.835536,349.210706 260.437213,351.573561 L174.376373,366.74574 C160.980901,369.108092 147.17738,366.674543 135.393093,359.874454 L59.710466,316.177522 C47.9273113,309.378087 38.9180475,298.640734 34.2690375,285.855692 L4.37681041,203.741203 C-0.276645135,190.959005 -0.276645135,176.943279 4.37678404,164.161153 L34.2688636,82.0431906 C38.9175254,69.2631241 47.9257404,58.5291224 59.7101121,51.7249662 L135.39307,8.03172237 C147.175796,1.2285161 160.979327,-1.20608568 174.376348,1.15653939 L260.437325,16.3326224 C273.837755,18.6958487 285.976393,25.7014537 294.722714,36.1225117 L350.895302,103.064845 Z M347.831238,105.636131 L291.658697,38.6938535 C283.517058,28.9932619 272.217294,22.4717988 259.742652,20.2718394 L173.681675,5.09575639 C161.210887,2.89647657 148.361479,5.16279463 137.393079,11.4958187 L61.7101212,55.1890625 C50.7402212,61.5229525 42.3549367,71.5146831 38.0277449,83.4109667 L8.13547541,165.529451 C3.80379986,177.427778 3.80379986,190.474506 8.13549139,202.372876 L38.0279774,284.488077 C42.3556027,296.389293 50.741664,306.383905 61.7100986,312.713208 L137.392725,356.41014 C148.362428,362.740175 161.21219,365.005577 173.681787,362.806508 L259.742627,347.634328 C272.214895,345.434788 283.515493,338.910887 291.658566,329.208587 L347.831238,262.266152 C355.969827,252.568478 360.429688,240.311417 360.429688,227.644437 L360.429688,140.257847 C360.429688,127.593296 355.968895,115.332695 347.831238,105.636131 Z" id="ring2" fill="#FEFEFE" fill-rule="nonzero"></path>
    </g>
</svg>