<?xml version="1.0" encoding="UTF-8"?>
<svg width="284px" height="281px" viewBox="0 0 284 281" version="1.1" xmlns="http://www.w3.org/2000/svg" xmlns:xlink="http://www.w3.org/1999/xlink">
    <!-- Generator: Sketch 52 (66869) - http://www.bohemiancoding.com/sketch -->
    <title>ring1</title>
    <desc>Created with Sketch.</desc>
    <g id="Page-1" stroke="none" stroke-width="1" fill="none" fill-rule="evenodd">
        <path d="M282.747912,128.811114 L269.190621,205.854076 C268.010637,212.55816 264.510663,218.633927 259.31002,223.004681 L199.501308,273.293893 C194.296921,277.668442 187.718937,280.066406 180.926142,280.066406 L102.852613,280.066406 C96.0573565,280.066406 89.4829161,277.669351 84.2773201,273.293786 L24.4689182,223.004835 C19.2680918,218.633927 15.7681184,212.55816 14.588127,205.854038 L1.03084935,128.811151 C-0.148739071,122.109319 1.0662894,115.205019 4.46205199,109.308771 L43.4985633,41.5608219 C46.8922099,35.664229 52.2528042,31.1580962 58.6415469,28.8284039 L132.003607,2.07067817 C138.389389,-0.257934392 145.389366,-0.257934392 151.775213,2.07070218 L225.137142,28.8283799 C231.525951,31.1580962 236.886545,35.664229 240.279939,41.5603824 L279.316629,109.308643 C282.714307,115.201321 283.928207,122.10527 282.747912,128.811114 Z M277.58394,110.307537 L238.546774,42.5584502 C235.387971,37.069908 230.398599,32.8758257 224.451899,30.7073268 L151.08997,3.94964905 C145.146721,1.78240865 138.632034,1.78240865 132.688851,3.94962505 L59.3267904,30.7073508 C53.380156,32.8758257 48.3907838,37.069908 45.2317281,42.5588897 L6.19506971,110.307094 C3.03358746,115.796548 1.9023323,122.224814 3.0005782,128.464499 L16.5578558,205.507385 C17.6564415,211.749 20.9148069,217.405349 25.7558677,221.4739 L85.5643255,271.762898 C90.4094775,275.835492 96.5282404,278.066406 102.852613,278.066406 L180.926142,278.066406 C187.248089,278.066406 193.370387,275.834559 198.214302,271.763005 L258.023071,221.473746 C262.863948,217.405349 266.122314,211.749 267.220893,205.507423 L280.778183,128.464461 C281.877133,122.22078 280.746975,115.793203 277.58394,110.307537 Z" id="ring1" fill="#F06022" fill-rule="nonzero"></path>
    </g>
</svg>