<?xml version="1.0" encoding="UTF-8"?>
<svg width="789px" height="785px" viewBox="0 0 789 785" version="1.1" xmlns="http://www.w3.org/2000/svg" xmlns:xlink="http://www.w3.org/1999/xlink">
    <!-- Generator: Sketch 52 (66869) - http://www.bohemiancoding.com/sketch -->
    <title>ring5</title>
    <desc>Created with Sketch.</desc>
    <g id="Page-1" stroke="none" stroke-width="1" fill="none" fill-rule="evenodd">
        <path d="M707.446988,162.263809 L753.87867,242.613902 C784.505875,295.617686 795.463841,357.702172 784.825714,417.966511 L768.7015,509.342313 C758.062537,569.611388 726.511725,624.209729 679.592866,663.542539 L608.454993,723.179613 C561.531409,762.51703 502.242271,784.078125 440.993228,784.078125 L348.130112,784.078125 C286.879591,784.078125 227.586769,762.516073 180.668341,723.179608 L109.530827,663.542834 C62.6088346,624.210769 31.0571632,569.61276 20.4178615,509.341764 L4.29373985,417.966487 C-6.34112207,357.697865 4.61566927,295.614075 35.2409121,242.613688 L81.6726028,162.26358 C112.302067,109.262845 160.637403,68.7414991 218.192368,47.8145553 L305.45862,16.0801103 C363.014087,-4.84701594 426.109253,-4.84701594 483.665226,16.0802943 L570.926961,47.8145083 C628.484778,68.7425566 676.822875,109.265377 707.446988,162.263809 Z M564.775884,64.7308983 L477.513899,32.9965934 C423.931732,13.5141564 365.191607,13.5141564 311.609826,32.9964534 L224.343574,64.7308983 C170.764366,84.2122599 125.769356,121.933284 97.2574381,171.26985 L50.8260035,251.619516 C22.3195216,300.953151 12.1209648,358.740603 22.0198789,414.83855 L38.1438993,506.213252 C48.0470546,562.314024 77.416422,613.135705 121.094427,649.748518 L192.232579,709.385827 C235.909972,746.005005 291.108427,766.078125 348.130112,766.078125 L440.993228,766.078125 C498.013525,766.078125 553.208571,746.005888 596.891046,709.385588 L668.028975,649.748466 C711.703903,613.135095 741.072608,562.312867 750.975462,506.213802 L767.099676,414.838 C777.001563,358.744416 766.801978,300.956684 738.293578,251.61973 L691.861897,171.269636 C663.355121,121.935492 618.357576,84.2131627 564.775884,64.7308983 Z" id="ring5" fill="#F06022" fill-rule="nonzero"></path>
    </g>
</svg>