<svg xmlns="http://www.w3.org/2000/svg" viewBox="0 0 258.73 259.52"><defs><style>.cls-1{fill:none;stroke:#fff;stroke-miterlimit:10;stroke-width:6px;}</style></defs><title>ring 6</title><g id="Layer_2" data-name="Layer 2"><g id="Your_Design" data-name="Your Design"><path class="cls-1" d="M249.65,95.28l-6.17-16.94a100.75,100.75,0,0,0-44.32-52.82l-15.61-9a100.9,100.9,0,0,0-67.91-12L97.89,7.66A100.83,100.83,0,0,0,38.17,42.14L26.58,56A100.83,100.83,0,0,0,3,120.74v18a100.83,100.83,0,0,0,23.58,64.79l11.59,13.81a100.83,100.83,0,0,0,59.72,34.48L115.64,255a100.9,100.9,0,0,0,67.91-12l15.61-9a100.75,100.75,0,0,0,44.32-52.82l6.17-16.94A100.77,100.77,0,0,0,249.65,95.28Z"/></g></g></svg>