<?xml version="1.0" encoding="UTF-8"?>
<svg width="80px" height="80px" viewBox="0 0 80 80" version="1.1" xmlns="http://www.w3.org/2000/svg" xmlns:xlink="http://www.w3.org/1999/xlink">
    <!-- Generator: Sketch 52 (66869) - http://www.bohemiancoding.com/sketch -->
    <title>iKey</title>
    <desc>Created with Sketch.</desc>
    <g id="iKey" stroke="none" stroke-width="1" fill="none" fill-rule="evenodd">
        <path d="M46,42 L46,46 L42,46 L42,42 L39.7101213,42 C38.8495721,44.8914889 36.1710206,47 33,47 C29.1340068,47 26,43.8659932 26,40 C26,36.1340068 29.1340068,33 33,33 C36.1710206,33 38.8495721,35.1085111 39.7101213,38 L54,38 L54,42 L52,42 L52,46 L48,46 L48,42 L46,42 Z M33,37 C31.3431458,37 30,38.3431458 30,40 C30,41.6568542 31.3431458,43 33,43 C34.6568542,43 36,41.6568542 36,40 C36,38.3431458 34.6568542,37 33,37 Z" id="Combined-Shape" fill="#112248"></path>
    </g>
</svg>